<svg xmlns="http://www.w3.org/2000/svg" width="704" height="678.0" viewBox="0 0 704 678.0" role="img" aria-label="Tito Apps"><title>Tito Apps</title><g transform="translate(322.56 168.60000000000002) scale(0.46)"><path d="M -80 -170 C -80 -192 -62 -210 -40 -210 L 8 -210 C 30 -210 48 -192 48 -170 L 48 -95 L 120 -95 C 142 -95 160 -77 160 -55 L 160 -18 C 160 4 142 22 120 22 L 48 22 L 48 132 C 48 187 69 211 118 211 L 136 211 C 159 211 178 230 178 253 L 178 275 C 178 298 159 317 136 317 L 100 317 C 6 317 -80 262 -80 142 L -80 22 L -136 22 C -158 22 -176 4 -176 -18 L -176 -55 C -176 -77 -158 -95 -136 -95 L -80 -95 Z" fill="#172338"/><circle cx="242" cy="-118" r="62" fill="#3CC54A"/></g><g transform="translate(109.12 410.42) scale(0.64)"><g transform="translate(0 0) scale(1.0)"><path d="M 24 6 L 24 110 Q 24 140 54 140" fill="none" stroke="#172338" stroke-width="26" stroke-linecap="round" stroke-linejoin="round"/><path d="M 2 50 L 58 50" fill="none" stroke="#172338" stroke-width="26" stroke-linecap="round" stroke-linejoin="round"/><path d="M 103.0 40 L 103.0 140" fill="none" stroke="#172338" stroke-width="26" stroke-linecap="round" stroke-linejoin="round"/><circle cx="103.0" cy="12" r="13.0" fill="#172338"/><path d="M 162.0 6 L 162.0 110 Q 162.0 140 192.0 140" fill="none" stroke="#172338" stroke-width="26" stroke-linecap="round" stroke-linejoin="round"/><path d="M 140.0 50 L 196.0 50" fill="none" stroke="#172338" stroke-width="26" stroke-linecap="round" stroke-linejoin="round"/><path d="M 228.0 90 A 37 37 0 1 1 302.0 90 A 37 37 0 1 1 228.0 90 Z" fill="none" stroke="#172338" stroke-width="26" stroke-linejoin="round"/><g transform="translate(340.0 0)"><path d="M 0 90 A 37 37 0 1 1 74 90 A 37 37 0 1 1 0 90 Z" fill="none" stroke="#3CC54A" stroke-width="26" stroke-linejoin="round"/><path d="M 74 40 L 74 140" fill="none" stroke="#3CC54A" stroke-width="26" stroke-linecap="round" stroke-linejoin="round"/><path d="M 122.0 40 L 122.0 184" fill="none" stroke="#3CC54A" stroke-width="26" stroke-linecap="round" stroke-linejoin="round"/><path d="M 122.0 90 A 37 37 0 1 1 196.0 90 A 37 37 0 1 1 122.0 90 Z" fill="none" stroke="#3CC54A" stroke-width="26" stroke-linejoin="round"/><path d="M 242.0 40 L 242.0 184" fill="none" stroke="#3CC54A" stroke-width="26" stroke-linecap="round" stroke-linejoin="round"/><path d="M 242.0 90 A 37 37 0 1 1 316.0 90 A 37 37 0 1 1 242.0 90 Z" fill="none" stroke="#3CC54A" stroke-width="26" stroke-linejoin="round"/><path d="M 411.0 56 C 409.0 38 383.0 36 367.0 52 C 351.0 66 357.0 86 381.0 92 C 401.0 97 415.0 106 413.0 122 C 411.0 138 383.0 144 365.0 126" fill="none" stroke="#3CC54A" stroke-width="26" stroke-linecap="round" stroke-linejoin="round"/></g></g></g><g transform="translate(106.0 592.0)"><path d="M24.2 0.0L21.3 0.0C20.9 0.0 20.7 -0.1 20.5 -0.2C20.3 -0.4 20.1 -0.6 20.0 -0.9L17.7 -7.4L6.6 -7.4L4.3 -0.9C4.2 -0.7 4.1 -0.5 3.9 -0.3C3.6 -0.1 3.4 0.0 3.1 0.0L0.2 0.0L10.3 -26.0L14.1 -26.0ZM7.5 -10.0L16.8 -10.0L13.0 -20.2C12.8 -20.6 12.7 -20.9 12.5 -21.3C12.4 -21.8 12.3 -22.2 12.2 -22.7C12.0 -22.2 11.9 -21.7 11.8 -21.3C11.6 -20.9 11.5 -20.5 11.4 -20.2ZM26.9 7.0L26.9 -20.0L29.0 -20.0C29.3 -20.0 29.5 -19.9 29.7 -19.8C29.8 -19.7 29.9 -19.5 30.0 -19.2L30.3 -16.6C31.2 -17.6 32.1 -18.4 33.2 -19.1C34.3 -19.7 35.6 -20.0 37.0 -20.0C38.1 -20.0 39.2 -19.8 40.1 -19.3C41.0 -18.9 41.8 -18.3 42.5 -17.5C43.2 -16.6 43.7 -15.6 44.0 -14.4C44.4 -13.1 44.5 -11.7 44.5 -10.1C44.5 -8.7 44.3 -7.3 44.0 -6.1C43.6 -4.9 43.0 -3.8 42.2 -2.9C41.5 -2.0 40.6 -1.3 39.5 -0.8C38.5 -0.3 37.3 0.0 35.9 0.0C34.7 0.0 33.7 -0.2 32.8 -0.6C31.9 -1.0 31.2 -1.6 30.5 -2.3L30.5 7.0ZM35.8 -17.2C34.7 -17.2 33.7 -16.9 32.8 -16.4C32.0 -15.9 31.2 -15.2 30.5 -14.3L30.5 -5.0C31.1 -4.2 31.8 -3.6 32.6 -3.2C33.3 -2.9 34.2 -2.7 35.1 -2.7C36.9 -2.7 38.4 -3.4 39.3 -4.6C40.3 -5.9 40.8 -7.7 40.8 -10.1C40.8 -11.4 40.7 -12.4 40.5 -13.3C40.3 -14.2 39.9 -14.9 39.5 -15.5C39.1 -16.1 38.6 -16.5 37.9 -16.8C37.3 -17.0 36.6 -17.2 35.8 -17.2ZM48.9 7.0L48.9 -20.0L51.0 -20.0C51.3 -20.0 51.5 -19.9 51.7 -19.8C51.8 -19.7 51.9 -19.5 52.0 -19.2L52.3 -16.6C53.2 -17.6 54.1 -18.4 55.2 -19.1C56.3 -19.7 57.6 -20.0 59.0 -20.0C60.1 -20.0 61.2 -19.8 62.1 -19.3C63.0 -18.9 63.8 -18.3 64.5 -17.5C65.2 -16.6 65.7 -15.6 66.0 -14.4C66.4 -13.1 66.5 -11.7 66.5 -10.1C66.5 -8.7 66.3 -7.3 66.0 -6.1C65.6 -4.9 65.0 -3.8 64.2 -2.9C63.5 -2.0 62.6 -1.3 61.5 -0.8C60.5 -0.3 59.3 0.0 57.9 0.0C56.7 0.0 55.7 -0.2 54.8 -0.6C53.9 -1.0 53.2 -1.6 52.5 -2.3L52.5 7.0ZM57.8 -17.2C56.7 -17.2 55.7 -16.9 54.8 -16.4C54.0 -15.9 53.2 -15.2 52.5 -14.3L52.5 -5.0C53.1 -4.2 53.8 -3.6 54.6 -3.2C55.3 -2.9 56.2 -2.7 57.1 -2.7C58.9 -2.7 60.4 -3.4 61.3 -4.6C62.3 -5.9 62.8 -7.7 62.8 -10.1C62.8 -11.4 62.7 -12.4 62.5 -13.3C62.3 -14.2 61.9 -14.9 61.5 -15.5C61.1 -16.1 60.6 -16.5 59.9 -16.8C59.3 -17.0 58.6 -17.2 57.8 -17.2ZM81.9 -16.5C81.8 -16.2 81.5 -16.0 81.2 -16.0C81.0 -16.0 80.8 -16.1 80.5 -16.2C80.3 -16.4 80.0 -16.5 79.7 -16.7C79.3 -16.9 78.9 -17.0 78.5 -17.2C78.0 -17.3 77.5 -17.4 76.8 -17.4C76.3 -17.4 75.8 -17.3 75.4 -17.2C75.0 -17.0 74.6 -16.8 74.3 -16.6C74.0 -16.3 73.8 -16.0 73.6 -15.7C73.5 -15.4 73.4 -15.0 73.4 -14.6C73.4 -14.1 73.5 -13.7 73.8 -13.4C74.1 -13.0 74.4 -12.8 74.9 -12.5C75.3 -12.3 75.8 -12.1 76.4 -11.9C77.0 -11.7 77.6 -11.5 78.2 -11.3C78.8 -11.1 79.4 -10.9 80.0 -10.6C80.6 -10.3 81.1 -10.0 81.5 -9.6C82.0 -9.2 82.3 -8.8 82.6 -8.2C82.9 -7.7 83.0 -7.0 83.0 -6.2C83.0 -5.3 82.9 -4.5 82.5 -3.8C82.2 -3.0 81.8 -2.3 81.2 -1.8C80.6 -1.2 79.8 -0.8 78.9 -0.5C78.0 -0.2 77.0 0.0 75.8 0.0C74.5 0.0 73.3 -0.2 72.2 -0.7C71.1 -1.1 70.2 -1.7 69.4 -2.4L70.3 -3.7C70.4 -3.9 70.5 -4.0 70.7 -4.1C70.8 -4.2 71.0 -4.2 71.2 -4.2C71.5 -4.2 71.7 -4.1 72.0 -4.0C72.2 -3.8 72.5 -3.6 72.9 -3.4C73.2 -3.2 73.6 -3.0 74.1 -2.8C74.6 -2.6 75.2 -2.5 76.0 -2.5C76.6 -2.5 77.1 -2.6 77.6 -2.8C78.1 -2.9 78.4 -3.2 78.8 -3.5C79.1 -3.7 79.3 -4.1 79.4 -4.5C79.6 -4.8 79.7 -5.2 79.7 -5.7C79.7 -6.2 79.5 -6.6 79.2 -7.0C79.0 -7.3 78.6 -7.6 78.1 -7.9C77.7 -8.1 77.2 -8.3 76.6 -8.5C76.0 -8.7 75.4 -8.9 74.8 -9.1C74.2 -9.3 73.6 -9.5 73.0 -9.8C72.4 -10.1 71.9 -10.4 71.5 -10.8C71.0 -11.2 70.7 -11.7 70.4 -12.2C70.1 -12.8 70.0 -13.5 70.0 -14.4C70.0 -15.1 70.1 -15.9 70.4 -16.5C70.7 -17.2 71.1 -17.8 71.7 -18.3C72.3 -18.8 73.0 -19.2 73.8 -19.5C74.7 -19.8 75.7 -20.0 76.8 -20.0C78.0 -20.0 79.1 -19.8 80.1 -19.4C81.1 -19.0 82.0 -18.4 82.7 -17.7ZM113.2 -20.0L113.2 7.0L109.6 7.0L109.6 -3.2C108.7 -2.2 107.8 -1.4 106.7 -0.9C105.6 -0.3 104.4 0.0 103.1 0.0C101.9 0.0 100.9 -0.2 99.9 -0.6C99.0 -1.1 98.2 -1.7 97.6 -2.5C96.9 -3.4 96.4 -4.4 96.0 -5.6C95.7 -6.9 95.5 -8.3 95.5 -9.9C95.5 -11.3 95.7 -12.7 96.1 -13.9C96.5 -15.1 97.1 -16.2 97.8 -17.1C98.6 -18.0 99.5 -18.7 100.5 -19.2C101.6 -19.7 102.8 -20.0 104.1 -20.0C105.4 -20.0 106.5 -19.8 107.4 -19.3C108.3 -18.9 109.1 -18.3 109.8 -17.4L110.1 -19.2C110.2 -19.7 110.5 -20.0 111.0 -20.0ZM104.2 -2.8C105.4 -2.8 106.4 -3.1 107.2 -3.6C108.1 -4.1 108.8 -4.8 109.6 -5.7L109.6 -15.0C108.9 -15.8 108.3 -16.4 107.5 -16.8C106.7 -17.1 105.9 -17.3 105.0 -17.3C103.1 -17.3 101.7 -16.6 100.7 -15.4C99.7 -14.1 99.2 -12.3 99.2 -9.9C99.2 -8.7 99.3 -7.6 99.6 -6.7C99.8 -5.8 100.1 -5.1 100.5 -4.5C101.0 -3.9 101.5 -3.5 102.1 -3.2C102.8 -3.0 103.5 -2.8 104.2 -2.8ZM122.2 -20.0L122.2 -7.5C122.2 -6.0 122.5 -4.8 123.2 -4.0C123.9 -3.2 124.9 -2.8 126.3 -2.8C127.3 -2.8 128.2 -3.0 129.1 -3.5C130.0 -4.0 130.8 -4.6 131.6 -5.5L131.6 -20.0L135.2 -20.0L135.2 0.0L133.0 0.0C132.8 0.0 132.6 -0.1 132.4 -0.2C132.2 -0.3 132.1 -0.5 132.1 -0.8L131.8 -3.1C130.9 -2.2 130.0 -1.4 128.9 -0.8C127.9 -0.3 126.6 0.0 125.2 0.0C124.1 0.0 123.2 -0.2 122.3 -0.5C121.5 -0.9 120.8 -1.4 120.3 -2.0C119.7 -2.7 119.3 -3.5 119.0 -4.4C118.7 -5.3 118.6 -6.3 118.6 -7.5L118.6 -20.0ZM149.0 -20.0C150.2 -20.0 151.3 -19.8 152.3 -19.4C153.3 -19.0 154.2 -18.5 155.0 -17.8C155.7 -17.0 156.3 -16.1 156.7 -15.0C157.2 -14.0 157.4 -12.7 157.4 -11.4C157.4 -10.8 157.3 -10.4 157.2 -10.3C157.1 -10.1 156.8 -10.0 156.5 -10.0L143.1 -10.0C143.1 -8.8 143.3 -7.7 143.6 -6.8C143.9 -5.9 144.4 -5.2 144.9 -4.6C145.5 -4.0 146.1 -3.5 146.9 -3.2C147.7 -2.9 148.5 -2.8 149.5 -2.8C150.3 -2.8 151.1 -2.9 151.7 -3.1C152.4 -3.2 152.9 -3.5 153.4 -3.7C153.8 -4.0 154.2 -4.2 154.5 -4.4C154.9 -4.5 155.1 -4.6 155.4 -4.6C155.5 -4.6 155.6 -4.6 155.8 -4.5C155.9 -4.5 156.0 -4.4 156.0 -4.3L157.1 -3.0C156.6 -2.5 156.1 -2.0 155.5 -1.7C154.9 -1.3 154.2 -1.0 153.5 -0.7C152.8 -0.5 152.1 -0.3 151.4 -0.2C150.6 -0.1 149.9 0.0 149.2 0.0C147.8 0.0 146.5 -0.2 145.3 -0.7C144.1 -1.1 143.1 -1.8 142.2 -2.7C141.4 -3.5 140.7 -4.6 140.2 -5.9C139.8 -7.2 139.5 -8.7 139.5 -10.4C139.5 -11.7 139.7 -13.0 140.2 -14.2C140.6 -15.3 141.2 -16.4 142.0 -17.2C142.9 -18.1 143.8 -18.8 145.0 -19.3C146.2 -19.8 147.5 -20.0 149.0 -20.0ZM149.0 -17.4C147.4 -17.4 146.0 -17.0 145.0 -16.0C144.1 -15.1 143.5 -13.8 143.2 -12.2L154.1 -12.2C154.1 -13.0 154.0 -13.7 153.8 -14.3C153.6 -14.9 153.2 -15.5 152.8 -16.0C152.3 -16.4 151.8 -16.8 151.2 -17.0C150.5 -17.3 149.8 -17.4 149.0 -17.4ZM182.9 -16.5C182.8 -16.2 182.5 -16.0 182.2 -16.0C182.0 -16.0 181.8 -16.1 181.5 -16.2C181.3 -16.4 181.0 -16.5 180.7 -16.7C180.3 -16.9 179.9 -17.0 179.5 -17.2C179.0 -17.3 178.5 -17.4 177.8 -17.4C177.3 -17.4 176.8 -17.3 176.4 -17.2C176.0 -17.0 175.6 -16.8 175.3 -16.6C175.0 -16.3 174.8 -16.0 174.6 -15.7C174.5 -15.4 174.4 -15.0 174.4 -14.6C174.4 -14.1 174.5 -13.7 174.8 -13.4C175.1 -13.0 175.4 -12.8 175.9 -12.5C176.3 -12.3 176.8 -12.1 177.4 -11.9C178.0 -11.7 178.6 -11.5 179.2 -11.3C179.8 -11.1 180.4 -10.9 181.0 -10.6C181.6 -10.3 182.1 -10.0 182.5 -9.6C183.0 -9.2 183.3 -8.8 183.6 -8.2C183.9 -7.7 184.0 -7.0 184.0 -6.2C184.0 -5.3 183.9 -4.5 183.5 -3.8C183.2 -3.0 182.8 -2.3 182.2 -1.8C181.6 -1.2 180.8 -0.8 179.9 -0.5C179.0 -0.2 178.0 0.0 176.8 0.0C175.5 0.0 174.3 -0.2 173.2 -0.7C172.1 -1.1 171.2 -1.7 170.4 -2.4L171.3 -3.7C171.4 -3.9 171.5 -4.0 171.7 -4.1C171.8 -4.2 172.0 -4.2 172.2 -4.2C172.5 -4.2 172.7 -4.1 173.0 -4.0C173.2 -3.8 173.5 -3.6 173.9 -3.4C174.2 -3.2 174.6 -3.0 175.1 -2.8C175.6 -2.6 176.2 -2.5 177.0 -2.5C177.6 -2.5 178.1 -2.6 178.6 -2.8C179.1 -2.9 179.4 -3.2 179.8 -3.5C180.1 -3.7 180.3 -4.1 180.4 -4.5C180.6 -4.8 180.7 -5.2 180.7 -5.7C180.7 -6.2 180.5 -6.6 180.2 -7.0C180.0 -7.3 179.6 -7.6 179.1 -7.9C178.7 -8.1 178.2 -8.3 177.6 -8.5C177.0 -8.7 176.4 -8.9 175.8 -9.1C175.2 -9.3 174.6 -9.5 174.0 -9.8C173.4 -10.1 172.9 -10.4 172.5 -10.8C172.0 -11.2 171.7 -11.7 171.4 -12.2C171.1 -12.8 171.0 -13.5 171.0 -14.4C171.0 -15.1 171.1 -15.9 171.4 -16.5C171.7 -17.2 172.1 -17.8 172.7 -18.3C173.3 -18.8 174.0 -19.2 174.8 -19.5C175.7 -19.8 176.7 -20.0 177.8 -20.0C179.0 -20.0 180.1 -19.8 181.1 -19.4C182.1 -19.0 183.0 -18.4 183.7 -17.7ZM187.2 0.0ZM191.6 -20.0L191.6 0.0L188.0 0.0L188.0 -20.0ZM192.3 -26.5C192.3 -26.1 192.3 -25.8 192.1 -25.5C192.0 -25.2 191.8 -25.0 191.5 -24.7C191.3 -24.5 191.0 -24.3 190.7 -24.2C190.4 -24.1 190.1 -24.0 189.8 -24.0C189.4 -24.0 189.1 -24.1 188.8 -24.2C188.5 -24.3 188.2 -24.5 188.0 -24.7C187.8 -25.0 187.6 -25.2 187.5 -25.5C187.3 -25.8 187.2 -26.1 187.2 -26.5C187.2 -26.8 187.3 -27.1 187.5 -27.5C187.6 -27.8 187.8 -28.0 188.0 -28.2C188.2 -28.5 188.5 -28.7 188.8 -28.8C189.1 -28.9 189.4 -29.0 189.8 -29.0C190.1 -29.0 190.4 -28.9 190.7 -28.8C191.0 -28.7 191.3 -28.5 191.5 -28.2C191.8 -28.0 192.0 -27.8 192.1 -27.5C192.3 -27.1 192.3 -26.8 192.3 -26.5ZM198.0 0.0L198.0 -20.0L200.1 -20.0C200.4 -20.0 200.6 -19.9 200.8 -19.8C201.0 -19.7 201.0 -19.5 201.1 -19.2L201.4 -17.0C201.8 -17.4 202.2 -17.8 202.6 -18.2C203.0 -18.5 203.4 -18.9 203.9 -19.1C204.4 -19.4 204.9 -19.6 205.5 -19.8C206.0 -19.9 206.6 -20.0 207.2 -20.0C208.6 -20.0 209.7 -19.6 210.6 -18.9C211.4 -18.1 212.1 -17.1 212.4 -15.9C212.7 -16.6 213.1 -17.2 213.6 -17.8C214.0 -18.3 214.6 -18.7 215.1 -19.0C215.7 -19.4 216.3 -19.6 217.0 -19.8C217.6 -19.9 218.3 -20.0 219.0 -20.0C221.2 -20.0 222.9 -19.4 224.1 -18.1C225.3 -16.8 225.9 -14.9 225.9 -12.5L225.9 0.0L222.2 0.0L222.2 -12.5C222.2 -14.1 221.9 -15.2 221.2 -16.0C220.5 -16.8 219.5 -17.2 218.1 -17.2C217.5 -17.2 217.0 -17.1 216.4 -16.9C215.9 -16.7 215.4 -16.4 215.0 -16.0C214.6 -15.6 214.3 -15.1 214.1 -14.6C213.8 -14.0 213.7 -13.3 213.7 -12.5L213.7 0.0L210.1 0.0L210.1 -12.5C210.1 -14.1 209.8 -15.3 209.1 -16.0C208.4 -16.8 207.5 -17.2 206.2 -17.2C205.3 -17.2 204.5 -17.0 203.7 -16.5C202.9 -16.1 202.2 -15.5 201.6 -14.7L201.6 0.0ZM231.9 7.0L231.9 -20.0L234.0 -20.0C234.3 -20.0 234.5 -19.9 234.7 -19.8C234.8 -19.7 234.9 -19.5 235.0 -19.2L235.3 -16.6C236.2 -17.6 237.1 -18.4 238.2 -19.1C239.3 -19.7 240.6 -20.0 242.0 -20.0C243.1 -20.0 244.2 -19.8 245.1 -19.3C246.0 -18.9 246.8 -18.3 247.5 -17.5C248.2 -16.6 248.7 -15.6 249.0 -14.4C249.4 -13.1 249.5 -11.7 249.5 -10.1C249.5 -8.7 249.3 -7.3 249.0 -6.1C248.6 -4.9 248.0 -3.8 247.2 -2.9C246.5 -2.0 245.6 -1.3 244.5 -0.8C243.5 -0.3 242.3 0.0 240.9 0.0C239.7 0.0 238.7 -0.2 237.8 -0.6C236.9 -1.0 236.2 -1.6 235.5 -2.3L235.5 7.0ZM240.8 -17.2C239.7 -17.2 238.7 -16.9 237.8 -16.4C237.0 -15.9 236.2 -15.2 235.5 -14.3L235.5 -5.0C236.1 -4.2 236.8 -3.6 237.6 -3.2C238.3 -2.9 239.2 -2.7 240.1 -2.7C241.9 -2.7 243.4 -3.4 244.3 -4.6C245.3 -5.9 245.8 -7.7 245.8 -10.1C245.8 -11.4 245.7 -12.4 245.5 -13.3C245.3 -14.2 244.9 -14.9 244.5 -15.5C244.1 -16.1 243.6 -16.5 242.9 -16.8C242.3 -17.0 241.6 -17.2 240.8 -17.2ZM257.6 -29.0L257.6 0.0L254.0 0.0L254.0 -29.0ZM263.2 0.0ZM267.6 -20.0L267.6 0.0L264.0 0.0L264.0 -20.0ZM268.3 -26.5C268.3 -26.1 268.3 -25.8 268.1 -25.5C268.0 -25.2 267.8 -25.0 267.5 -24.7C267.3 -24.5 267.0 -24.3 266.7 -24.2C266.4 -24.1 266.1 -24.0 265.8 -24.0C265.4 -24.0 265.1 -24.1 264.8 -24.2C264.5 -24.3 264.2 -24.5 264.0 -24.7C263.8 -25.0 263.6 -25.2 263.5 -25.5C263.3 -25.8 263.2 -26.1 263.2 -26.5C263.2 -26.8 263.3 -27.1 263.5 -27.5C263.6 -27.8 263.8 -28.0 264.0 -28.2C264.2 -28.5 264.5 -28.7 264.8 -28.8C265.1 -28.9 265.4 -29.0 265.8 -29.0C266.1 -29.0 266.4 -28.9 266.7 -28.8C267.0 -28.7 267.3 -28.5 267.5 -28.2C267.8 -28.0 268.0 -27.8 268.1 -27.5C268.3 -27.1 268.3 -26.8 268.3 -26.5ZM274.5 0.0L274.5 -17.4L272.5 -17.7C272.2 -17.7 271.9 -17.8 271.8 -17.9C271.6 -18.1 271.5 -18.3 271.5 -18.6L271.5 -20.0L274.5 -20.0L274.5 -21.9C274.5 -23.0 274.6 -24.0 274.9 -24.9C275.2 -25.8 275.7 -26.6 276.3 -27.2C276.8 -27.8 277.5 -28.2 278.4 -28.5C279.2 -28.8 280.1 -29.0 281.1 -29.0C281.6 -29.0 282.0 -29.0 282.4 -28.9C282.8 -28.8 283.2 -28.7 283.5 -28.6L283.4 -26.8C283.4 -26.5 283.2 -26.4 282.9 -26.3C282.6 -26.3 282.2 -26.3 281.7 -26.3C281.1 -26.3 280.6 -26.2 280.2 -26.1C279.7 -25.9 279.3 -25.7 279.0 -25.3C278.7 -25.0 278.4 -24.5 278.2 -23.9C278.1 -23.3 278.0 -22.6 278.0 -21.8L278.0 -20.0L283.4 -20.0L283.4 -17.4L278.1 -17.4L278.1 0.0ZM286.2 0.0ZM290.6 -20.0L290.6 0.0L287.0 0.0L287.0 -20.0ZM291.3 -26.5C291.3 -26.1 291.3 -25.8 291.1 -25.5C291.0 -25.2 290.8 -25.0 290.5 -24.7C290.3 -24.5 290.0 -24.3 289.7 -24.2C289.4 -24.1 289.1 -24.0 288.8 -24.0C288.4 -24.0 288.1 -24.1 287.8 -24.2C287.5 -24.3 287.2 -24.5 287.0 -24.7C286.8 -25.0 286.6 -25.2 286.5 -25.5C286.3 -25.8 286.2 -26.1 286.2 -26.5C286.2 -26.8 286.3 -27.1 286.5 -27.5C286.6 -27.8 286.8 -28.0 287.0 -28.2C287.2 -28.5 287.5 -28.7 287.8 -28.8C288.1 -28.9 288.4 -29.0 288.8 -29.0C289.1 -29.0 289.4 -28.9 289.7 -28.8C290.0 -28.7 290.3 -28.5 290.5 -28.2C290.8 -28.0 291.0 -27.8 291.1 -27.5C291.3 -27.1 291.3 -26.8 291.3 -26.5ZM309.8 -16.2C309.7 -16.0 309.6 -15.9 309.5 -15.9C309.3 -15.8 309.2 -15.8 309.0 -15.8C308.8 -15.8 308.6 -15.8 308.4 -16.0C308.2 -16.1 307.9 -16.3 307.5 -16.5C307.2 -16.7 306.8 -16.9 306.4 -17.0C305.9 -17.2 305.3 -17.3 304.6 -17.3C303.7 -17.3 302.9 -17.1 302.2 -16.8C301.5 -16.4 301.0 -15.9 300.5 -15.3C300.1 -14.7 299.7 -13.9 299.5 -13.0C299.2 -12.1 299.1 -11.1 299.1 -10.0C299.1 -8.8 299.2 -7.8 299.5 -6.9C299.7 -6.0 300.1 -5.2 300.6 -4.6C301.0 -4.0 301.6 -3.5 302.2 -3.2C302.9 -2.9 303.6 -2.7 304.5 -2.7C305.3 -2.7 305.9 -2.8 306.4 -3.0C306.9 -3.2 307.3 -3.4 307.7 -3.7C308.0 -3.9 308.3 -4.1 308.5 -4.3C308.8 -4.5 309.0 -4.6 309.2 -4.6C309.5 -4.6 309.7 -4.5 309.9 -4.3L310.9 -3.0C310.5 -2.5 310.0 -2.0 309.5 -1.7C309.0 -1.3 308.4 -1.0 307.8 -0.7C307.1 -0.5 306.5 -0.3 305.8 -0.2C305.2 -0.1 304.5 0.0 303.8 0.0C302.6 0.0 301.5 -0.2 300.5 -0.7C299.5 -1.1 298.6 -1.8 297.8 -2.6C297.1 -3.5 296.5 -4.5 296.1 -5.8C295.6 -7.0 295.4 -8.4 295.4 -10.0C295.4 -11.5 295.6 -12.8 296.0 -14.0C296.4 -15.2 297.0 -16.3 297.7 -17.2C298.5 -18.1 299.4 -18.8 300.5 -19.2C301.7 -19.8 302.9 -20.0 304.4 -20.0C305.8 -20.0 307.0 -19.8 308.0 -19.3C309.0 -18.9 309.9 -18.3 310.7 -17.5ZM327.9 0.0C327.6 0.0 327.3 -0.1 327.1 -0.2C326.9 -0.3 326.8 -0.5 326.7 -0.9L326.3 -2.9C325.8 -2.5 325.2 -2.1 324.8 -1.7C324.2 -1.3 323.7 -1.0 323.2 -0.8C322.6 -0.5 322.0 -0.3 321.4 -0.2C320.8 -0.1 320.1 0.0 319.3 0.0C318.6 0.0 317.8 -0.1 317.2 -0.3C316.5 -0.5 315.9 -0.8 315.4 -1.3C314.9 -1.7 314.5 -2.2 314.2 -2.9C313.9 -3.5 313.7 -4.3 313.7 -5.2C313.7 -6.0 313.9 -6.7 314.4 -7.4C314.8 -8.1 315.5 -8.8 316.5 -9.3C317.4 -9.9 318.7 -10.4 320.3 -10.7C321.8 -11.1 323.7 -11.2 326.0 -11.2L326.0 -12.7C326.0 -14.2 325.7 -15.3 325.0 -16.0C324.3 -16.8 323.4 -17.2 322.1 -17.2C321.3 -17.2 320.6 -17.1 320.0 -16.8C319.4 -16.6 318.9 -16.4 318.5 -16.2C318.0 -15.9 317.7 -15.7 317.4 -15.5C317.1 -15.3 316.8 -15.2 316.4 -15.2C316.2 -15.2 316.0 -15.2 315.8 -15.4C315.6 -15.5 315.5 -15.6 315.4 -15.8L314.7 -16.9C315.8 -17.9 317.0 -18.7 318.3 -19.2C319.6 -19.7 321.0 -20.0 322.5 -20.0C323.7 -20.0 324.7 -19.8 325.5 -19.5C326.4 -19.1 327.1 -18.6 327.7 -17.9C328.3 -17.3 328.8 -16.5 329.1 -15.6C329.4 -14.7 329.5 -13.7 329.5 -12.6L329.5 0.0ZM320.4 -2.5C321.0 -2.5 321.6 -2.5 322.1 -2.6C322.6 -2.8 323.1 -2.9 323.5 -3.2C324.0 -3.4 324.4 -3.6 324.8 -4.0C325.2 -4.3 325.6 -4.6 326.0 -5.0L326.0 -9.0C324.4 -9.0 323.0 -8.9 321.9 -8.7C320.8 -8.5 319.9 -8.2 319.2 -7.9C318.5 -7.6 318.0 -7.2 317.7 -6.8C317.3 -6.4 317.2 -5.9 317.2 -5.4C317.2 -4.9 317.3 -4.4 317.4 -4.0C317.6 -3.7 317.8 -3.4 318.1 -3.2C318.4 -2.9 318.8 -2.8 319.2 -2.6C319.6 -2.5 320.0 -2.5 320.4 -2.5ZM334.9 0.0L334.9 -20.0L337.0 -20.0C337.3 -20.0 337.5 -19.9 337.7 -19.8C337.8 -19.7 337.9 -19.5 338.0 -19.2L338.2 -16.9C339.1 -17.8 340.1 -18.6 341.1 -19.1C342.2 -19.7 343.4 -20.0 344.8 -20.0C345.9 -20.0 346.9 -19.8 347.7 -19.5C348.5 -19.1 349.2 -18.6 349.8 -18.0C350.4 -17.3 350.8 -16.5 351.1 -15.6C351.4 -14.7 351.5 -13.7 351.5 -12.5L351.5 0.0L347.9 0.0L347.9 -12.5C347.9 -14.0 347.6 -15.2 346.9 -16.0C346.2 -16.8 345.2 -17.2 343.8 -17.2C342.8 -17.2 341.8 -17.0 340.9 -16.5C340.0 -16.0 339.2 -15.4 338.5 -14.5L338.5 0.0ZM372.5 0.0C371.0 0.0 369.8 -0.4 369.0 -1.3C368.1 -2.2 367.7 -3.5 367.7 -5.2L367.7 -17.4L365.4 -17.4C365.2 -17.4 365.1 -17.5 364.9 -17.6C364.8 -17.8 364.7 -18.0 364.7 -18.2L364.7 -19.6L367.9 -20.0L368.7 -25.4C368.7 -25.6 368.8 -25.7 369.0 -25.8C369.1 -25.9 369.3 -26.0 369.5 -26.0L371.3 -26.0L371.3 -20.0L376.9 -20.0L376.9 -17.4L371.3 -17.4L371.3 -5.4C371.3 -4.5 371.5 -3.9 371.9 -3.5C372.3 -3.1 372.8 -2.9 373.4 -2.9C373.7 -2.9 374.0 -2.9 374.3 -3.0C374.5 -3.1 374.8 -3.2 374.9 -3.3C375.1 -3.5 375.3 -3.6 375.4 -3.7C375.5 -3.8 375.6 -3.8 375.8 -3.8C375.9 -3.8 376.0 -3.8 376.0 -3.7C376.1 -3.7 376.2 -3.6 376.3 -3.5L377.3 -1.8C376.7 -1.2 376.0 -0.8 375.2 -0.5C374.3 -0.1 373.5 0.0 372.5 0.0ZM384.2 -20.0L384.2 -7.5C384.2 -6.0 384.5 -4.8 385.2 -4.0C385.9 -3.2 386.9 -2.8 388.3 -2.8C389.3 -2.8 390.2 -3.0 391.1 -3.5C392.0 -4.0 392.8 -4.6 393.6 -5.5L393.6 -20.0L397.2 -20.0L397.2 0.0L395.0 0.0C394.8 0.0 394.6 -0.1 394.4 -0.2C394.2 -0.3 394.1 -0.5 394.1 -0.8L393.8 -3.1C392.9 -2.2 392.0 -1.4 390.9 -0.8C389.9 -0.3 388.6 0.0 387.2 0.0C386.1 0.0 385.2 -0.2 384.3 -0.5C383.5 -0.9 382.8 -1.4 382.3 -2.0C381.7 -2.7 381.3 -3.5 381.0 -4.4C380.7 -5.3 380.6 -6.3 380.6 -7.5L380.6 -20.0ZM421.1 0.0L417.9 0.0L410.4 -20.0L413.4 -20.0C413.6 -20.0 413.9 -19.9 414.1 -19.8C414.2 -19.6 414.4 -19.5 414.5 -19.3L418.7 -6.5C418.9 -6.0 419.1 -5.5 419.2 -5.1C419.3 -4.6 419.4 -4.2 419.5 -3.7C419.6 -4.2 419.8 -4.6 419.9 -5.1C420.0 -5.5 420.2 -6.0 420.4 -6.5L424.7 -19.3C424.8 -19.5 424.9 -19.6 425.1 -19.8C425.3 -19.9 425.5 -20.0 425.7 -20.0L428.6 -20.0ZM431.2 0.0ZM435.6 -20.0L435.6 0.0L432.0 0.0L432.0 -20.0ZM436.3 -26.5C436.3 -26.1 436.3 -25.8 436.1 -25.5C436.0 -25.2 435.8 -25.0 435.5 -24.7C435.3 -24.5 435.0 -24.3 434.7 -24.2C434.4 -24.1 434.1 -24.0 433.8 -24.0C433.4 -24.0 433.1 -24.1 432.8 -24.2C432.5 -24.3 432.2 -24.5 432.0 -24.7C431.8 -25.0 431.6 -25.2 431.5 -25.5C431.3 -25.8 431.2 -26.1 431.2 -26.5C431.2 -26.8 431.3 -27.1 431.5 -27.5C431.6 -27.8 431.8 -28.0 432.0 -28.2C432.2 -28.5 432.5 -28.7 432.8 -28.8C433.1 -28.9 433.4 -29.0 433.8 -29.0C434.1 -29.0 434.4 -28.9 434.7 -28.8C435.0 -28.7 435.3 -28.5 435.5 -28.2C435.8 -28.0 436.0 -27.8 436.1 -27.5C436.3 -27.1 436.3 -26.8 436.3 -26.5ZM456.0 0.0C455.7 0.0 455.5 -0.1 455.3 -0.2C455.2 -0.3 455.1 -0.5 455.0 -0.8L454.7 -3.4C453.8 -2.4 452.8 -1.5 451.8 -0.9C450.7 -0.3 449.4 0.0 448.0 0.0C446.9 0.0 445.9 -0.2 444.9 -0.6C444.0 -1.1 443.2 -1.7 442.6 -2.5C441.9 -3.4 441.4 -4.4 441.0 -5.6C440.7 -6.9 440.5 -8.3 440.5 -9.9C440.5 -11.3 440.7 -12.7 441.1 -13.9C441.5 -15.1 442.1 -16.2 442.8 -17.1C443.5 -18.0 444.4 -18.7 445.5 -19.2C446.5 -19.7 447.8 -20.0 449.1 -20.0C450.3 -20.0 451.3 -19.8 452.2 -19.4C453.1 -19.0 453.8 -18.4 454.5 -17.7L454.5 -29.0L458.1 -29.0L458.1 0.0ZM449.2 -2.8C450.3 -2.8 451.3 -3.1 452.2 -3.6C453.0 -4.1 453.8 -4.8 454.5 -5.7L454.5 -15.0C453.9 -15.9 453.2 -16.4 452.4 -16.8C451.7 -17.1 450.8 -17.3 449.9 -17.3C448.1 -17.3 446.7 -16.6 445.7 -15.4C444.7 -14.1 444.2 -12.3 444.2 -9.9C444.2 -8.7 444.3 -7.6 444.6 -6.7C444.8 -5.8 445.1 -5.1 445.5 -4.5C446.0 -3.9 446.5 -3.5 447.1 -3.2C447.7 -3.0 448.4 -2.8 449.2 -2.8ZM476.9 0.0C476.6 0.0 476.3 -0.1 476.1 -0.2C475.9 -0.3 475.8 -0.5 475.7 -0.9L475.3 -2.9C474.8 -2.5 474.2 -2.1 473.8 -1.7C473.2 -1.3 472.7 -1.0 472.2 -0.8C471.6 -0.5 471.0 -0.3 470.4 -0.2C469.8 -0.1 469.1 0.0 468.3 0.0C467.6 0.0 466.8 -0.1 466.2 -0.3C465.5 -0.5 464.9 -0.8 464.4 -1.3C463.9 -1.7 463.5 -2.2 463.2 -2.9C462.9 -3.5 462.7 -4.3 462.7 -5.2C462.7 -6.0 462.9 -6.7 463.4 -7.4C463.8 -8.1 464.5 -8.8 465.5 -9.3C466.4 -9.9 467.7 -10.4 469.3 -10.7C470.8 -11.1 472.7 -11.2 475.0 -11.2L475.0 -12.7C475.0 -14.2 474.7 -15.3 474.0 -16.0C473.3 -16.8 472.4 -17.2 471.1 -17.2C470.3 -17.2 469.6 -17.1 469.0 -16.8C468.4 -16.6 467.9 -16.4 467.5 -16.2C467.0 -15.9 466.7 -15.7 466.4 -15.5C466.1 -15.3 465.8 -15.2 465.4 -15.2C465.2 -15.2 465.0 -15.2 464.8 -15.4C464.6 -15.5 464.5 -15.6 464.4 -15.8L463.7 -16.9C464.8 -17.9 466.0 -18.7 467.3 -19.2C468.6 -19.7 470.0 -20.0 471.5 -20.0C472.7 -20.0 473.7 -19.8 474.5 -19.5C475.4 -19.1 476.1 -18.6 476.7 -17.9C477.3 -17.3 477.8 -16.5 478.1 -15.6C478.4 -14.7 478.5 -13.7 478.5 -12.6L478.5 0.0ZM469.4 -2.5C470.0 -2.5 470.6 -2.5 471.1 -2.6C471.6 -2.8 472.1 -2.9 472.5 -3.2C473.0 -3.4 473.4 -3.6 473.8 -4.0C474.2 -4.3 474.6 -4.6 475.0 -5.0L475.0 -9.0C473.4 -9.0 472.0 -8.9 470.9 -8.7C469.8 -8.5 468.9 -8.2 468.2 -7.9C467.5 -7.6 467.0 -7.2 466.7 -6.8C466.3 -6.4 466.2 -5.9 466.2 -5.4C466.2 -4.9 466.3 -4.4 466.4 -4.0C466.6 -3.7 466.8 -3.4 467.1 -3.2C467.4 -2.9 467.8 -2.8 468.2 -2.6C468.6 -2.5 469.0 -2.5 469.4 -2.5ZM481.0 0.0" fill="#172338"/><path d="M2.8 0.0ZM7.8 -2.5C7.8 -2.1 7.7 -1.8 7.6 -1.5C7.5 -1.2 7.3 -1.0 7.0 -0.7C6.8 -0.5 6.5 -0.3 6.2 -0.2C5.9 -0.1 5.6 0.0 5.2 0.0C4.9 0.0 4.6 -0.1 4.3 -0.2C4.0 -0.3 3.7 -0.5 3.5 -0.7C3.3 -1.0 3.1 -1.2 3.0 -1.5C2.8 -1.8 2.8 -2.1 2.8 -2.5C2.8 -2.8 2.8 -3.1 3.0 -3.5C3.1 -3.8 3.3 -4.0 3.5 -4.2C3.7 -4.5 4.0 -4.7 4.3 -4.8C4.6 -4.9 4.9 -5.0 5.2 -5.0C5.6 -5.0 5.9 -4.9 6.2 -4.8C6.5 -4.7 6.8 -4.5 7.0 -4.2C7.3 -4.0 7.5 -3.8 7.6 -3.5C7.7 -3.1 7.8 -2.8 7.8 -2.5ZM11.0 0.0" fill="#3CC54A" transform="translate(481.0 0)"/></g></svg>