<svg xmlns="http://www.w3.org/2000/svg" width="1072.7" height="279.6" viewBox="0 0 1072.7 279.6"><g transform="translate(0 47.59)"><g transform="translate(107.84 71.81) scale(0.34)"><path d="M -80 -170 C -80 -192 -62 -210 -40 -210 L 8 -210 C 30 -210 48 -192 48 -170 L 48 -95 L 120 -95 C 142 -95 160 -77 160 -55 L 160 -18 C 160 4 142 22 120 22 L 48 22 L 48 132 C 48 187 69 211 118 211 L 136 211 C 159 211 178 230 178 253 L 178 275 C 178 298 159 317 136 317 L 100 317 C 6 317 -80 262 -80 142 L -80 22 L -136 22 C -158 22 -176 4 -176 -18 L -176 -55 C -176 -77 -158 -95 -136 -95 L -80 -95 Z" fill="#1E2632"/><circle cx="220" cy="-105" r="62" fill="#9AA3AD"/></g><g transform="translate(265.72 0)"><g transform="translate(0 0) scale(1.0)"><path d="M 24 6 L 24 110 Q 24 140 54 140" fill="none" stroke="#1E2632" stroke-width="26" stroke-linecap="round" stroke-linejoin="round"/><path d="M 2 50 L 58 50" fill="none" stroke="#1E2632" stroke-width="26" stroke-linecap="round" stroke-linejoin="round"/><path d="M 103.0 40 L 103.0 140" fill="none" stroke="#1E2632" stroke-width="26" stroke-linecap="round" stroke-linejoin="round"/><circle cx="103.0" cy="12" r="13.0" fill="#1E2632"/><path d="M 162.0 6 L 162.0 110 Q 162.0 140 192.0 140" fill="none" stroke="#1E2632" stroke-width="26" stroke-linecap="round" stroke-linejoin="round"/><path d="M 140.0 50 L 196.0 50" fill="none" stroke="#1E2632" stroke-width="26" stroke-linecap="round" stroke-linejoin="round"/><path d="M 228.0 90 A 37 37 0 1 1 302.0 90 A 37 37 0 1 1 228.0 90 Z" fill="none" stroke="#1E2632" stroke-width="26" stroke-linejoin="round"/><g transform="translate(340.0 0)"><path d="M 0 90 A 37 37 0 1 1 74 90 A 37 37 0 1 1 0 90 Z" fill="none" stroke="#9AA3AD" stroke-width="26" stroke-linejoin="round"/><path d="M 74 40 L 74 140" fill="none" stroke="#9AA3AD" stroke-width="26" stroke-linecap="round" stroke-linejoin="round"/><path d="M 122.0 40 L 122.0 184" fill="none" stroke="#9AA3AD" stroke-width="26" stroke-linecap="round" stroke-linejoin="round"/><path d="M 122.0 90 A 37 37 0 1 1 196.0 90 A 37 37 0 1 1 122.0 90 Z" fill="none" stroke="#9AA3AD" stroke-width="26" stroke-linejoin="round"/><path d="M 242.0 40 L 242.0 184" fill="none" stroke="#9AA3AD" stroke-width="26" stroke-linecap="round" stroke-linejoin="round"/><path d="M 242.0 90 A 37 37 0 1 1 316.0 90 A 37 37 0 1 1 242.0 90 Z" fill="none" stroke="#9AA3AD" stroke-width="26" stroke-linejoin="round"/><path d="M 411.0 56 C 409.0 38 383.0 36 367.0 52 C 351.0 66 357.0 86 381.0 92 C 401.0 97 415.0 106 413.0 122 C 411.0 138 383.0 144 365.0 126" fill="none" stroke="#9AA3AD" stroke-width="26" stroke-linecap="round" stroke-linejoin="round"/></g></g></g></g></svg>