<?xml version="1.0" encoding="UTF-8"?>
<!-- Generator: visioncortex VTracer 0.6.12 -->
<svg version="1.1" xmlns="http://www.w3.org/2000/svg" width="528" height="563" viewBox="0 0 528 563">

<path d="M0 0 C0.487 -0.001 0.487 -0.001 2.954 -0.003 C27.734 0.014 53.345 1.368 76.947 9.589 C78.938 10.25 78.938 10.25 81.609 10.82 C84.352 11.552 85.835 12.307 87.938 14.25 C90.011 19.007 91.212 23.849 92.381 28.894 C95.012 40.039 98.496 50.149 103.938 60.25 C104.887 62.15 105.819 64.058 106.752 65.967 C112.082 76.829 117.928 87.384 124.265 97.69 C131.09 108.82 138.101 120.636 141.875 133.188 C144.076 139.81 148.906 144.661 153.536 149.713 C154.826 151.127 156.084 152.57 157.34 154.016 C172.575 171.473 172.575 171.473 180.148 172.57 C185.654 172.073 188.631 170.578 192.289 166.422 C198.397 158.375 198.397 158.375 199.938 154.25 C199.277 152.219 199.277 152.219 197.938 150.25 C197.463 149.553 196.989 148.855 196.5 148.137 C195.462 146.676 194.42 145.217 193.375 143.762 C190.195 138.205 189.615 132.603 189.688 126.312 C189.68 125.648 189.672 124.983 189.664 124.299 C189.68 120.077 190.319 116.417 191.43 112.355 C192.37 108.457 192.691 104.486 193.062 100.5 C193.104 100.061 193.104 100.061 193.311 97.837 C194.941 79.495 194.941 79.495 190.848 71.41 C189.278 67.685 189.092 64.188 189.938 60.25 C191.812 57.188 191.812 57.188 194.938 55.25 C199.892 54.327 203.72 54.653 208.25 56.875 C213.238 61.283 217.534 65.818 218.165 72.745 C218.154 73.599 218.144 74.453 218.133 75.332 C218.126 76.263 218.12 77.195 218.113 78.154 C218.097 79.114 218.08 80.074 218.062 81.062 C218.053 82.042 218.044 83.021 218.035 84.029 C218.012 86.436 217.979 88.843 217.938 91.25 C219.007 90.79 220.077 90.33 221.18 89.855 C221.821 89.581 222.463 89.307 223.124 89.025 C224.462 88.453 225.798 87.878 227.133 87.301 C234.799 84.368 243.56 83.873 251.438 86.375 C258.402 90.106 258.402 90.106 259.938 94.25 C260.112 98.074 259.998 101.776 259.723 105.594 C259.98 109.979 261.467 111.703 263.938 115.25 C264.398 118.285 264.398 118.285 264.312 121.312 C264.3 122.314 264.287 123.316 264.273 124.348 C263.931 127.306 263.083 129.522 261.938 132.25 C262.217 133.927 262.561 135.593 262.938 137.25 C263.868 143.778 262.712 147.942 258.77 153.242 C255.866 156.425 252.815 158.419 248.938 160.25 C248.283 160.568 247.628 160.887 246.953 161.215 C239.882 164.099 232.432 163.517 224.938 163.25 C224.691 164.101 224.445 164.952 224.191 165.828 C222.831 169.541 221.024 172.709 218.875 176 C218.479 176.609 218.082 177.218 217.674 177.846 C210.845 188.104 202.111 198.536 189.938 202.25 C177.399 203.624 169.078 199.168 158.938 192.25 C158.608 192.58 158.277 192.91 157.938 193.25 C158.028 195.158 158.184 197.063 158.367 198.965 C158.958 205.93 159.087 212.826 159.062 219.812 C159.066 220.941 159.07 222.07 159.074 223.232 C159.051 243.022 159.051 243.022 156.938 247.25 C156.805 248.623 156.707 249.998 156.625 251.375 C154.056 277.253 141.732 302.912 125.938 323.25 C125.25 324.142 124.563 325.034 123.855 325.953 C109.61 343.92 92.342 357.849 71.938 368.25 C71.278 368.594 70.619 368.937 69.94 369.292 C54.384 377.341 37.902 382.386 20.812 386.062 C19.921 386.257 19.03 386.452 18.111 386.653 C2.402 389.825 -13.541 390.587 -29.527 390.511 C-32.194 390.5 -34.86 390.511 -37.527 390.523 C-77.072 390.558 -117.085 380.93 -148.062 355.25 C-148.616 354.8 -149.169 354.351 -149.74 353.888 C-163.573 342.627 -174.52 330.318 -184.062 315.25 C-184.467 314.611 -184.872 313.972 -185.29 313.313 C-201.062 287.945 -201.062 287.945 -201.062 276.25 C-201.991 276.745 -202.919 277.24 -203.875 277.75 C-209.455 280.111 -215.477 280.245 -221.301 278.629 C-227.931 275.732 -233.251 269.89 -236.062 263.25 C-236.626 258.826 -236.582 256.968 -233.938 253.312 C-231.062 251.25 -231.062 251.25 -228.062 250.625 C-224.144 251.441 -222.812 253.43 -220.062 256.25 C-217.25 256.562 -217.25 256.562 -215.062 256.25 C-213.276 252.677 -213.343 249.136 -214.062 245.25 C-217.386 239.179 -223.502 235.236 -228.939 231.177 C-235.038 226.603 -240.537 221.49 -246.062 216.25 C-246.804 215.596 -247.545 214.943 -248.309 214.27 C-254.988 208.163 -260.947 199.976 -262.703 190.961 C-263.136 178.734 -256.172 171.22 -248.48 162.445 C-234.497 147.648 -215.831 136.815 -198.062 127.25 C-197.159 126.756 -196.255 126.263 -195.324 125.754 C-179.138 117.25 -179.138 117.25 -172.062 117.25 C-171.836 116.425 -171.609 115.6 -171.375 114.75 C-170.27 111.804 -169.342 110.16 -167.562 107.688 C-165.133 104.032 -164.604 100.968 -164.125 96.625 C-163.606 92.324 -163.182 89.592 -160.125 86.438 C-157.062 84.25 -157.062 84.25 -154.062 84.25 C-153.954 83.742 -153.846 83.234 -153.734 82.711 C-152.816 79.348 -151.556 76.128 -150.312 72.875 C-149.769 71.433 -149.226 69.99 -148.684 68.547 C-147.682 65.888 -146.674 63.232 -145.66 60.578 C-143.443 54.62 -141.832 49.106 -140.875 42.812 C-139.867 37.873 -138.927 35.364 -134.812 32.375 C-132.918 31.293 -130.999 30.254 -129.062 29.25 C-128.07 28.643 -127.077 28.036 -126.055 27.41 C-89.061 5.737 -42.141 0.03 0 0 Z " fill="#E0E550" transform="translate(263.0625,161.75)"/>
<path d="M0 0 C4.68 0.435 9.195 1.407 13.75 2.562 C14.859 2.832 15.967 3.101 17.109 3.379 C20.484 5.271 21.196 6.841 22.315 10.478 C22.428 10.894 22.428 10.894 23 13 C23.145 13.493 23.145 13.493 23.876 15.989 C25.21 20.562 26.508 25.146 27.775 29.738 C30.054 37.682 33.114 44.72 37 52 C37.68 53.367 38.354 54.736 39.02 56.109 C44.62 67.511 50.673 78.618 57.328 89.44 C64.153 100.57 71.163 112.386 74.938 124.938 C77.138 131.56 81.969 136.411 86.598 141.463 C87.888 142.877 89.147 144.32 90.402 145.766 C105.637 163.223 105.637 163.223 113.211 164.32 C118.717 163.823 121.693 162.328 125.352 158.172 C131.459 150.125 131.459 150.125 133 146 C132.34 143.969 132.34 143.969 131 142 C130.526 141.303 130.051 140.605 129.562 139.887 C128.525 138.426 127.483 136.967 126.438 135.512 C123.258 129.955 122.677 124.353 122.75 118.062 C122.742 117.398 122.735 116.733 122.727 116.049 C122.743 111.827 123.382 108.167 124.492 104.105 C125.432 100.207 125.754 96.236 126.125 92.25 C126.166 91.811 126.166 91.811 126.374 89.587 C128.004 71.245 128.004 71.245 123.91 63.16 C122.341 59.435 122.155 55.938 123 52 C124.875 48.938 124.875 48.938 128 47 C132.954 46.077 136.782 46.403 141.312 48.625 C146.301 53.033 150.597 57.568 151.227 64.495 C151.217 65.349 151.206 66.203 151.195 67.082 C151.189 68.013 151.182 68.945 151.176 69.904 C151.159 70.864 151.142 71.824 151.125 72.812 C151.116 73.792 151.107 74.771 151.098 75.779 C151.074 78.186 151.041 80.593 151 83 C152.07 82.54 153.14 82.08 154.242 81.605 C154.884 81.331 155.525 81.057 156.187 80.775 C157.524 80.203 158.86 79.628 160.195 79.051 C167.862 76.118 176.622 75.623 184.5 78.125 C191.464 81.856 191.464 81.856 193 86 C193.174 89.824 193.061 93.526 192.785 97.344 C193.043 101.729 194.529 103.453 197 107 C197.461 110.035 197.461 110.035 197.375 113.062 C197.362 114.064 197.349 115.066 197.336 116.098 C196.994 119.056 196.146 121.272 195 124 C195.279 125.677 195.623 127.343 196 129 C196.931 135.528 195.775 139.692 191.832 144.992 C188.928 148.175 185.878 150.169 182 152 C181.345 152.318 180.69 152.637 180.016 152.965 C172.945 155.849 165.495 155.267 158 155 C157.754 155.851 157.508 156.702 157.254 157.578 C155.893 161.291 154.087 164.459 151.938 167.75 C151.541 168.359 151.145 168.968 150.737 169.596 C143.907 179.854 135.173 190.286 123 194 C110.462 195.374 102.141 190.918 92 184 C91.67 184.33 91.34 184.66 91 185 C91.09 186.908 91.247 188.813 91.43 190.715 C92.021 197.68 92.149 204.576 92.125 211.562 C92.129 212.691 92.133 213.82 92.137 214.982 C92.114 234.772 92.114 234.772 90 239 C89.867 240.373 89.769 241.748 89.688 243.125 C87.118 269.003 74.795 294.662 59 315 C58.313 315.892 57.626 316.784 56.918 317.703 C42.672 335.67 25.404 349.599 5 360 C4.341 360.344 3.682 360.687 3.003 361.042 C-12.553 369.091 -29.036 374.136 -46.125 377.812 C-47.016 378.007 -47.908 378.202 -48.826 378.403 C-64.536 381.575 -80.479 382.337 -96.464 382.261 C-99.131 382.25 -101.798 382.261 -104.465 382.273 C-144.009 382.308 -184.023 372.68 -215 347 C-215.553 346.55 -216.107 346.101 -216.677 345.638 C-230.511 334.377 -241.458 322.068 -251 307 C-251.405 306.361 -251.81 305.722 -252.227 305.063 C-268 279.695 -268 279.695 -268 268 C-268.928 268.495 -269.856 268.99 -270.812 269.5 C-276.393 271.861 -282.414 271.995 -288.238 270.379 C-294.869 267.482 -300.188 261.64 -303 255 C-303.563 250.576 -303.519 248.718 -300.875 245.062 C-298 243 -298 243 -295 242.375 C-291.081 243.191 -289.749 245.18 -287 248 C-284.188 248.312 -284.188 248.312 -282 248 C-280.213 244.427 -280.28 240.886 -281 237 C-284.323 230.929 -290.44 226.986 -295.876 222.927 C-301.975 218.353 -307.474 213.24 -313 208 C-313.741 207.346 -314.482 206.693 -315.246 206.02 C-321.926 199.913 -327.885 191.726 -329.641 182.711 C-330.074 170.484 -323.11 162.97 -315.418 154.195 C-301.435 139.398 -282.769 128.565 -265 119 C-264.096 118.506 -263.193 118.013 -262.262 117.504 C-246.075 109 -246.075 109 -239 109 C-238.773 108.175 -238.546 107.35 -238.312 106.5 C-237.208 103.554 -236.28 101.91 -234.5 99.438 C-232.07 95.782 -231.542 92.718 -231.062 88.375 C-230.543 84.074 -230.119 81.342 -227.062 78.188 C-224 76 -224 76 -221 76 C-220.892 75.492 -220.783 74.984 -220.672 74.461 C-219.754 71.098 -218.494 67.878 -217.25 64.625 C-216.706 63.183 -216.164 61.74 -215.621 60.297 C-214.62 57.638 -213.611 54.982 -212.598 52.328 C-210.38 46.37 -208.769 40.856 -207.812 34.562 C-206.794 29.471 -205.751 27.046 -201.5 24 C-199.691 22.957 -197.855 21.958 -196 21 C-195.023 20.424 -194.046 19.848 -193.039 19.254 C-185.71 15 -185.71 15 -181 15 C-184.927 44.254 -194.745 72.152 -208.685 98.1 C-209.133 98.95 -209.581 99.8 -210.043 100.676 C-210.445 101.417 -210.848 102.159 -211.262 102.923 C-212.152 105.428 -211.973 106.553 -211 109 C-174.483 150.307 -108.262 167.242 -55.619 170.492 C-52.413 170.677 -49.207 170.844 -46 171 C-45.896 170.421 -45.791 169.842 -45.684 169.246 C-44.124 164.122 -39.916 160.216 -35.488 157.406 C-29.052 154.097 -23.31 152.38 -16 153 C-9.183 155.349 -5.944 159.085 -2 165 C-2 166.32 -2 167.64 -2 169 C-3.98 169.33 -5.96 169.66 -8 170 C-8.598 169.051 -9.196 168.102 -9.812 167.125 C-12 164 -12 164 -15 162 C-20.647 161.343 -26.409 162.187 -32 163 C-32 163.66 -32 164.32 -32 165 C-31.469 165.219 -30.938 165.438 -30.391 165.664 C-25.387 167.91 -22.387 169.829 -20 175 C-19.701 177.763 -19.807 180.207 -20 183 C-20.66 183 -21.32 183 -22 183 C-23.148 181.355 -23.148 181.355 -24.375 179.188 C-27.739 173.631 -27.739 173.631 -31 172 C-33.438 171.5 -33.438 171.5 -36 172 C-41.795 177.005 -41.795 177.005 -42.238 181.32 C-42.451 189.352 -41.153 194.496 -35.75 200.5 C-32.078 202.503 -29.096 202.859 -25 202 C-22 200 -22 200 -20 198 C-15.346 199.48 -15.346 199.48 -13.883 201.68 C-13.633 202.404 -13.383 203.129 -13.125 203.875 C-12.813 204.746 -12.501 205.618 -12.18 206.516 C-11.79 207.665 -11.401 208.815 -11 210 C-10.4 211.704 -9.799 213.407 -9.195 215.109 C-7.444 220.066 -5.716 225.031 -4 230 C-3.168 229.849 -2.335 229.697 -1.477 229.541 C1.614 228.98 4.706 228.421 7.798 227.864 C9.136 227.622 10.473 227.38 11.811 227.136 C13.734 226.786 15.658 226.44 17.582 226.094 C18.739 225.884 19.897 225.675 21.089 225.459 C24 225 24 225 27 225 C26.688 226.875 26.688 226.875 26 229 C21.345 232.104 16.09 232.848 10.688 234.125 C9.559 234.402 8.43 234.679 7.268 234.965 C6.173 235.227 5.077 235.488 3.949 235.758 C2.952 235.996 1.956 236.235 0.928 236.481 C-2.233 237.041 -4.807 237.442 -8 237 C-10.468 233.931 -11.71 230.452 -13.043 226.77 C-13.394 225.802 -13.746 224.835 -14.107 223.838 C-14.464 222.84 -14.82 221.841 -15.188 220.812 C-15.372 220.308 -15.372 220.308 -16.303 217.752 C-19 210.271 -19 210.271 -19 208 C-19.99 208.33 -20.98 208.66 -22 209 C-29.523 209.892 -35.052 209.465 -41.16 204.781 C-43.965 202.066 -45.38 199.564 -47 196 C-47.36 195.224 -47.719 194.448 -48.09 193.648 C-49.628 189.172 -49.113 184.675 -49 180 C-49.721 180.015 -50.442 180.029 -51.186 180.044 C-58.715 180.129 -66.028 179.649 -73.5 178.75 C-74.627 178.617 -75.754 178.483 -76.916 178.345 C-87.07 177.088 -97.025 175.26 -107 173 C-107.671 172.855 -108.342 172.71 -109.033 172.56 C-149.197 163.83 -187.375 144.503 -217 116 C-220.645 120.145 -222.932 124.483 -225.25 129.438 C-225.637 130.262 -226.024 131.087 -226.423 131.937 C-233.221 146.742 -238.607 162.061 -242 178 C-242.106 178.49 -242.106 178.49 -242.645 180.969 C-250.198 218.79 -242.364 259.867 -221.875 292.371 C-209.887 310.203 -195.748 324.142 -177.767 335.849 C-176.31 336.798 -174.866 337.767 -173.426 338.742 C-152.023 352.562 -123.83 360.049 -98.512 360.203 C-97.735 360.21 -96.957 360.217 -96.157 360.224 C-93.667 360.241 -91.177 360.248 -88.688 360.25 C-87.839 360.251 -86.99 360.253 -86.115 360.254 C-73.499 360.25 -61.363 359.714 -49 357 C-47.938 356.783 -46.876 356.567 -45.781 356.344 C-42.809 355.673 -39.919 354.875 -37 354 C-36.344 353.806 -35.687 353.611 -35.011 353.411 C3.061 341.974 35.158 317.532 54.195 282.477 C58.78 273.645 62.256 264.674 65.188 255.188 C65.425 254.431 65.663 253.674 65.909 252.894 C70.248 238.253 71.525 223.94 71.375 208.75 C71.373 208.322 71.373 208.322 71.36 206.158 C71.171 178.528 66.044 153.067 54.602 127.766 C53.308 124.869 52.436 122.165 52 119 C51.34 119 50.68 119 50 119 C49.743 119.563 49.487 120.127 49.223 120.707 C43.119 132.153 32.486 141.034 22.375 148.812 C21.658 149.364 20.942 149.915 20.203 150.484 C8.922 159 8.922 159 4.375 159 C1.477 157.78 -0.583 155.992 -3 154 C-1.9 153.31 -0.801 152.621 0.332 151.91 C37.732 128.241 37.732 128.241 45 111 C44.591 106.617 43.463 103.575 41.191 99.832 C40.614 98.866 40.037 97.9 39.442 96.905 C38.822 95.884 38.201 94.864 37.562 93.812 C36.278 91.653 34.997 89.491 33.719 87.328 C33.402 86.793 33.402 86.793 31.801 84.084 C29.294 79.792 26.894 75.452 24.562 71.062 C24.199 70.393 23.836 69.723 23.461 69.032 C16.172 55.159 11.344 40.435 6.918 25.456 C6.047 22.511 5.164 19.571 4.279 16.631 C3.718 14.755 3.157 12.88 2.598 11.004 C2.335 10.127 2.073 9.25 1.803 8.347 C1.565 7.541 1.327 6.735 1.082 5.905 C0.977 5.55 0.977 5.55 0.446 3.759 C0 2 0 2 0 0 Z " fill="#06592E" transform="translate(330,170)"/>
<path d="M0 0 C0.487 -0.001 0.487 -0.001 2.954 -0.003 C25.766 0.013 47.655 2.245 69.938 7.25 C68.947 7.58 67.957 7.91 66.938 8.25 C69.709 17.292 72.513 26.323 75.343 35.348 C75.894 37.111 76.441 38.876 76.988 40.641 C83.724 62.293 93.127 81.408 104.738 100.859 C105.277 101.77 105.815 102.681 106.37 103.619 C107.394 105.338 108.437 107.046 109.501 108.74 C112.926 114.393 112.926 114.393 112.98 118.5 C106.04 136.8 81.718 153.713 64.938 162.25 C70.438 166.25 70.438 166.25 74.938 166.25 C74.938 166.91 74.938 167.57 74.938 168.25 C74.278 168.58 73.618 168.91 72.938 169.25 C73.144 169.508 73.144 169.508 74.188 170.812 C83.94 184.397 87.415 202.087 91.938 217.938 C92.24 218.994 92.543 220.051 92.855 221.139 C93.13 222.128 93.405 223.118 93.688 224.137 C93.93 225.005 94.172 225.874 94.422 226.768 C94.954 229.331 95.031 231.64 94.938 234.25 C94.319 234.311 94.319 234.311 91.191 234.621 C85.374 235.267 79.635 236.284 73.875 237.312 C72.819 237.499 71.762 237.685 70.674 237.877 C68.095 238.332 65.516 238.79 62.938 239.25 C59.574 232.054 56.963 224.726 54.494 217.184 C54.206 216.332 53.918 215.479 53.621 214.602 C53.369 213.837 53.117 213.072 52.857 212.284 C51.863 210.086 50.736 208.833 48.938 207.25 C46.444 208.454 44.256 209.704 41.938 211.25 C38.016 211.773 35.453 212.093 31.965 210.152 C27.001 206.2 24.374 201.991 23.625 195.57 C23.367 189.623 23.806 185.854 27.938 181.25 C30.938 179.25 30.938 179.25 34.25 179.188 C39.063 180.574 41.338 183.037 43.938 187.25 C44.602 189.48 44.602 189.48 44.938 191.25 C45.597 191.25 46.257 191.25 46.938 191.25 C46.301 186.357 45.744 182.366 42.812 178.312 C39.278 175.777 36.072 174.582 31.938 173.25 C34.6 170.204 36.633 169.722 40.688 169.387 C41.43 169.342 42.173 169.296 42.938 169.25 C43.701 169.174 44.464 169.098 45.25 169.02 C49.391 168.761 52.096 168.894 55.438 171.5 C58.704 175.093 58.704 175.093 58.938 178.25 C60.918 177.92 62.898 177.59 64.938 177.25 C62.565 171.2 60.566 166.688 54.625 163.438 C47.3 161.079 40.903 162.329 33.938 165.25 C28.25 168.645 23.085 172.807 20.938 179.25 C-7.694 180.313 -36.097 174.59 -63.062 165.25 C-63.84 164.985 -64.618 164.719 -65.42 164.446 C-89.939 156.019 -113.62 144.453 -133.485 127.588 C-134.56 126.676 -135.643 125.774 -136.733 124.881 C-138.339 123.564 -139.922 122.225 -141.5 120.875 C-142.406 120.104 -143.312 119.333 -144.246 118.539 C-146.062 116.25 -146.062 116.25 -145.826 113.913 C-145.036 111.156 -144.004 108.885 -142.656 106.355 C-142.41 105.884 -142.41 105.884 -141.165 103.5 C-140.636 102.489 -140.107 101.479 -139.562 100.438 C-130.684 82.965 -124.314 65.289 -119.562 46.312 C-119.39 45.626 -119.218 44.939 -119.041 44.232 C-117.23 36.937 -115.656 29.757 -115.062 22.25 C-89.117 10.593 -61.284 4.212 -33.062 1.25 C-32.641 1.203 -32.641 1.203 -30.51 0.964 C-20.365 -0.039 -10.185 0.007 0 0 Z " fill="#E0E54F" transform="translate(263.0625,161.75)"/>


<path d="M0 0 C1.052 0.784 2.104 1.567 3.188 2.375 C13.629 12.121 20.587 24.919 26 38 C26.586 36.71 27.169 35.418 27.75 34.125 C27.936 33.712 27.936 33.712 28.875 31.625 C29.59 29.957 30.262 28.27 30.875 26.562 C34.093 17.598 39.672 8.031 48 3 C52.585 1.983 55.347 2.632 59.438 4.938 C62.954 7.768 62.954 7.768 63.688 11.5 C63.665 14.707 63.226 15.756 61.016 18.145 C59.244 19.634 57.464 21.113 55.676 22.582 C47.121 30.313 42.414 41.934 40 53 C40.969 52.954 41.939 52.907 42.938 52.859 C70.199 51.959 94.719 64.295 115.023 81.738 C123.733 89.978 132.002 101.085 137 112 C136.67 112.66 136.34 113.32 136 114 C135.268 113.685 134.536 113.371 133.781 113.047 C82.284 92.693 10.203 100.314 -39.859 121.164 C-46.72 124.144 -53.37 127.542 -60 131 C-61.332 131.67 -62.664 132.339 -64 133 C-62.512 127.567 -61.087 122.76 -58 118 C-57.794 117.484 -57.794 117.484 -56.75 114.875 C-53.083 106.09 -47.013 98.3 -41 91 C-40.715 90.642 -40.715 90.642 -39.273 88.828 C-27.248 74.398 -9.99 63.133 8 58 C9.585 57.421 11.169 56.838 12.75 56.25 C16.963 54.825 20.575 54.759 25 55 C23.599 51.701 22.02 49.87 19.188 47.688 C18.521 47.155 17.855 46.623 17.168 46.074 C14.251 44.629 13.09 45.03 10 46 C7.516 46.92 5.072 47.868 2.625 48.875 C1.991 49.132 1.357 49.388 0.703 49.652 C-2.296 50.87 -5.24 52.114 -8.164 53.508 C-17.852 57.622 -28.026 58.532 -38.438 58.438 C-39.621 58.429 -40.805 58.421 -42.024 58.412 C-50.662 58.245 -58 57.462 -66 54 C-67.161 53.502 -68.323 53.005 -69.52 52.492 C-88.007 43.879 -102.422 29.728 -115 14 C-115.617 13.318 -116.235 12.636 -116.871 11.934 C-118 10 -118 10 -117.91 7.426 C-115.034 -0.24 -101.213 -4.781 -94.07 -8.088 C-88.526 -10.531 -82.832 -12.364 -77 -14 C-75.88 -14.32 -74.76 -14.639 -73.605 -14.969 C-46.779 -21.472 -21.713 -16.724 0 0 Z " fill="#08532F" transform="translate(197,17)"/>
<path d="M0 0 C14.051 11.528 23.911 30.389 26.469 48.195 C28.386 68.761 24.546 88.326 12.031 105.07 C10.863 106.462 9.676 107.838 8.469 109.195 C8.184 109.532 8.184 109.532 6.742 111.238 C-2.594 121.508 -17.933 129.11 -31.765 130.404 C-51.519 131.199 -68.512 126.526 -83.531 113.195 C-84.132 112.687 -84.733 112.18 -85.352 111.656 C-97.996 100.146 -106.02 81.326 -106.816 64.414 C-107.204 49.949 -105.396 37.144 -98.531 24.195 C-98.004 23.195 -97.477 22.195 -96.934 21.164 C-87.956 4.967 -74.041 -7.182 -56.156 -12.617 C-35.418 -17.273 -17.034 -12.144 0 0 Z " fill="#96562B" transform="translate(271.53125,364.8046875)"/>
<path d="M0 0 C5.438 2.668 9.517 6.881 12.128 12.374 C13.041 15.122 13.231 17.197 13.195 20.082 C13.189 21.013 13.182 21.945 13.176 22.904 C13.167 23.384 13.167 23.384 13.125 25.812 C13.116 26.792 13.107 27.771 13.098 28.779 C13.074 31.186 13.041 33.593 13 36 C14.07 35.54 15.14 35.08 16.242 34.605 C16.884 34.331 17.525 34.057 18.187 33.775 C19.524 33.203 20.86 32.628 22.195 32.051 C29.862 29.118 38.622 28.623 46.5 31.125 C53.464 34.856 53.464 34.856 55 39 C55.174 42.824 55.061 46.526 54.785 50.344 C55.043 54.729 56.529 56.453 59 60 C59.461 63.035 59.461 63.035 59.375 66.062 C59.362 67.064 59.349 68.066 59.336 69.098 C58.994 72.056 58.146 74.272 57 77 C57.279 78.677 57.623 80.343 58 82 C58.931 88.528 57.775 92.692 53.832 97.992 C50.928 101.175 47.878 103.169 44 105 C43.345 105.318 42.69 105.637 42.016 105.965 C34.945 108.849 27.495 108.267 20 108 C19.754 108.851 19.508 109.702 19.254 110.578 C17.893 114.291 16.087 117.459 13.938 120.75 C13.541 121.359 13.145 121.968 12.737 122.596 C5.907 132.854 -2.827 143.286 -15 147 C-27.462 148.366 -35.964 143.989 -46 137 C-46.33 136.67 -46.66 136.34 -47 136 C-47.33 140.62 -47.66 145.24 -48 150 C-48.66 149.34 -49.32 148.68 -50 148 C-50.99 148 -51.98 148 -53 148 C-53.165 146.02 -53.165 146.02 -54 136 C-53.505 135.67 -53.505 135.67 -51 134 C-49.219 129.331 -50.608 124.939 -51.688 120.25 C-51.87 119.423 -52.053 118.595 -52.241 117.742 C-52.816 115.159 -53.407 112.579 -54 110 C-54.188 109.17 -54.376 108.341 -54.57 107.486 C-55.104 105.135 -55.644 102.786 -56.188 100.438 C-56.354 99.718 -56.521 98.998 -56.692 98.257 C-57.879 93.242 -57.879 93.242 -59 91 C-59.99 90.67 -60.98 90.34 -62 90 C-61.67 88.35 -61.34 86.7 -61 85 C-61.99 85 -62.98 85 -64 85 C-64.33 84.01 -64.66 83.02 -65 82 C-64.34 81.01 -63.68 80.02 -63 79 C-62.859 79.238 -62.859 79.238 -62.145 80.441 C-58.718 85.898 -54.775 90.768 -50.562 95.625 C-50.025 96.246 -49.488 96.867 -48.935 97.506 C-32.822 115.879 -32.822 115.879 -24.605 117.461 C-20.257 117.298 -17.5 115.991 -14.312 113.062 C-10.66 108.913 -6.944 104.204 -5 99 C-5.66 96.969 -5.66 96.969 -7 95 C-7.474 94.303 -7.949 93.605 -8.438 92.887 C-9.475 91.426 -10.517 89.967 -11.562 88.512 C-14.742 82.955 -15.323 77.353 -15.25 71.062 C-15.254 70.73 -15.254 70.73 -15.273 69.049 C-15.257 64.827 -14.618 61.167 -13.508 57.105 C-12.568 53.207 -12.246 49.236 -11.875 45.25 C-11.834 44.811 -11.834 44.811 -11.626 42.587 C-9.996 24.245 -9.996 24.245 -14.09 16.16 C-15.659 12.435 -15.845 8.938 -15 5 C-11.354 -0.956 -6.4 -1.101 0 0 Z " fill="#05472D" transform="translate(468,217)"/>
<path d="M0 0 C1.052 0.784 2.104 1.567 3.188 2.375 C13.629 12.121 20.587 24.919 26 38 C26.66 37.67 27.32 37.34 28 37 C27.449 42.239 26.571 46.974 25 52 C19.207 48.182 19.207 48.182 16.938 46.188 C15 45 15 45 12.84 45.246 C9.316 46.182 5.99 47.49 2.625 48.875 C1.991 49.132 1.357 49.388 0.703 49.652 C-2.296 50.87 -5.24 52.114 -8.164 53.508 C-17.852 57.622 -28.026 58.532 -38.438 58.438 C-39.621 58.429 -40.805 58.421 -42.024 58.412 C-50.662 58.245 -58 57.462 -66 54 C-67.161 53.502 -68.323 53.005 -69.52 52.492 C-88.007 43.879 -102.422 29.728 -115 14 C-115.617 13.318 -116.235 12.636 -116.871 11.934 C-118 10 -118 10 -117.91 7.426 C-115.034 -0.24 -101.213 -4.781 -94.07 -8.088 C-88.526 -10.531 -82.832 -12.364 -77 -14 C-75.88 -14.32 -74.76 -14.639 -73.605 -14.969 C-46.779 -21.472 -21.713 -16.724 0 0 Z " fill="#088138" transform="translate(197,17)"/>
<path d="M0 0 C-0.83 1.659 -1.659 3.319 -2.49 4.978 C-3.212 6.423 -3.933 7.869 -4.653 9.315 C-6.406 12.832 -8.17 16.342 -9.984 19.828 C-13.387 26.43 -16.25 32.766 -18 40 C-18.165 39.34 -18.165 39.34 -19 36 C-54.362 53.724 -54.362 53.724 -61 67 C-61.576 73.28 -59.394 76.076 -55.691 80.918 C-51.171 86.297 -45.822 90.891 -40.587 95.553 C-38.315 97.625 -36.17 99.822 -34 102 C-33.216 102.598 -32.432 103.196 -31.625 103.812 C-24.197 110.002 -18.659 117.243 -17 127 C-16.715 131.657 -16.784 136.299 -17.008 140.958 C-17.387 150.377 -14.617 158.185 -10.812 166.688 C-10.512 167.364 -10.212 168.04 -9.902 168.737 C2.134 195.405 19.663 219.316 44 236 C44.659 236.46 45.319 236.92 45.998 237.395 C65.085 250.583 87.339 259.913 110 265 C109.67 265.99 109.34 266.98 109 268 C109.99 268.66 110.98 269.32 112 270 C104.809 270.279 98.264 269.572 91.25 268 C90.257 267.778 89.264 267.556 88.241 267.327 C65.114 261.897 43.363 252.223 25 237 C24.447 236.55 23.893 236.101 23.323 235.638 C9.489 224.377 -1.458 212.068 -11 197 C-11.405 196.361 -11.81 195.722 -12.227 195.063 C-28 169.695 -28 169.695 -28 158 C-28.928 158.495 -29.856 158.99 -30.812 159.5 C-36.393 161.861 -42.414 161.995 -48.238 160.379 C-54.869 157.482 -60.188 151.64 -63 145 C-63.563 140.576 -63.519 138.718 -60.875 135.062 C-58 133 -58 133 -55 132.375 C-51.081 133.191 -49.749 135.18 -47 138 C-44.188 138.312 -44.188 138.312 -42 138 C-40.213 134.427 -40.28 130.886 -41 127 C-44.323 120.929 -50.44 116.986 -55.876 112.927 C-61.975 108.353 -67.474 103.24 -73 98 C-73.741 97.346 -74.482 96.693 -75.246 96.02 C-81.926 89.913 -87.885 81.726 -89.641 72.711 C-90.074 60.484 -83.11 52.97 -75.418 44.195 C-60.192 28.083 -23.144 -1.106 0 0 Z " fill="#05472F" transform="translate(90,280)"/>
<path d="M0 0 C1.599 0.146 3.201 0.258 4.805 0.341 C5.271 0.367 5.271 0.367 7.627 0.494 C8.628 0.545 9.629 0.596 10.66 0.648 C12.825 0.766 14.99 0.884 17.156 1.002 C18.285 1.063 19.414 1.123 20.577 1.186 C85.561 4.714 85.561 4.714 97 11 C97 11.99 97 12.98 97 14 C91.66 16.151 86.588 17.682 80.875 18.5 C80.033 18.621 79.19 18.742 78.323 18.867 C-18.138 31.807 -120.668 28.966 -263.812 18.5 C-264.558 18.394 -265.304 18.287 -266.073 18.178 C-271.027 17.379 -275.37 15.867 -280 14 C-279.67 12.68 -279.34 11.36 -279 10 C-272.221 8.028 -265.568 6.391 -258.562 5.5 C-257.626 5.38 -256.69 5.259 -255.726 5.135 C-240.157 3.282 -224.474 2.421 -208.829 1.489 C-203.561 1.172 -198.306 0.79 -193.047 0.344 C-180.878 -0.59 -171.979 0.222 -160.773 5.082 C-155.473 7.339 -150.059 8.611 -144.438 9.812 C-143.565 10.007 -142.692 10.201 -141.792 10.401 C-126.146 13.658 -110.436 14.38 -94.5 14.312 C-93.584 14.31 -92.668 14.308 -91.725 14.306 C-63.883 14.201 -36.265 11.237 -10.211 0.741 C-6.233 -0.816 -4.094 -0.922 0 0 Z " fill="#C8DBA5" transform="translate(325,537)"/>
<path d="M0 0 C0.909 0.001 1.817 0.003 2.753 0.005 C17.793 0.049 32.522 0.755 47.375 3.312 C48.218 3.457 49.062 3.602 49.931 3.75 C55.154 4.69 60.267 5.872 65.375 7.312 C65.745 7.415 65.745 7.415 67.619 7.933 C79.715 11.412 79.715 11.412 83.152 15.348 C84.239 17.672 84.83 19.808 85.375 22.312 C85.978 24.084 86.583 25.854 87.188 27.625 C88.271 31.042 88.343 32.892 87.375 36.312 C86.198 35.926 85.021 35.539 83.809 35.141 C22.508 15.55 -55.332 19.769 -113.625 47.312 C-118.05 49.602 -122.356 52.073 -126.633 54.625 C-129.625 56.312 -129.625 56.312 -131.625 56.312 C-131.625 56.972 -131.625 57.632 -131.625 58.312 C-132.285 58.312 -132.945 58.312 -133.625 58.312 C-133.151 54.708 -132.67 51.104 -132.188 47.5 C-132.12 46.988 -132.12 46.988 -131.779 44.396 C-131.647 43.414 -131.515 42.431 -131.379 41.418 C-131.258 40.512 -131.138 39.606 -131.014 38.673 C-130.204 33.758 -130.204 33.758 -127.917 31.997 C-103.979 17.907 -78.632 9.092 -51.312 4 C-50.528 3.853 -49.743 3.705 -48.934 3.554 C-32.723 0.763 -16.421 -0.067 0 0 Z " fill="#F4704F" transform="translate(258.625,128.6875)"/>
<path d="M0 0 C-3.927 29.254 -13.745 57.152 -27.685 83.1 C-28.133 83.95 -28.581 84.8 -29.043 85.676 C-29.445 86.417 -29.848 87.159 -30.262 87.923 C-31.152 90.428 -30.973 91.553 -30 94 C6.517 135.307 72.738 152.242 125.381 155.492 C128.587 155.677 131.793 155.844 135 156 C135.104 155.421 135.209 154.842 135.316 154.246 C136.876 149.122 141.084 145.216 145.512 142.406 C151.948 139.097 157.69 137.38 165 138 C171.817 140.349 175.056 144.085 179 150 C179 151.32 179 152.64 179 154 C177.02 154.33 175.04 154.66 173 155 C172.402 154.051 171.804 153.102 171.188 152.125 C169 149 169 149 166 147 C160.353 146.343 154.591 147.187 149 148 C149 148.66 149 149.32 149 150 C149.531 150.219 150.062 150.438 150.609 150.664 C155.613 152.91 158.613 154.829 161 160 C161.299 162.763 161.193 165.207 161 168 C160.34 168 159.68 168 159 168 C157.852 166.355 157.852 166.355 156.625 164.188 C153.261 158.631 153.261 158.631 150 157 C147.562 156.5 147.562 156.5 145 157 C139.205 162.005 139.205 162.005 138.762 166.32 C138.549 174.352 139.847 179.496 145.25 185.5 C148.922 187.503 151.904 187.859 156 187 C159 185 159 185 161 183 C165.654 184.48 165.654 184.48 167.117 186.68 C167.367 187.404 167.617 188.129 167.875 188.875 C168.187 189.746 168.499 190.618 168.82 191.516 C169.21 192.665 169.599 193.815 170 195 C170.6 196.704 171.201 198.407 171.805 200.109 C173.556 205.066 175.284 210.031 177 215 C177.832 214.849 178.665 214.697 179.523 214.541 C182.614 213.98 185.706 213.421 188.798 212.864 C190.136 212.622 191.473 212.38 192.811 212.136 C194.734 211.786 196.658 211.44 198.582 211.094 C199.739 210.884 200.897 210.675 202.089 210.459 C205 210 205 210 208 210 C207.687 211.875 207.687 211.875 207 214 C202.345 217.104 197.09 217.848 191.688 219.125 C190.559 219.402 189.43 219.679 188.268 219.965 C187.173 220.227 186.077 220.488 184.949 220.758 C183.952 220.996 182.956 221.235 181.928 221.481 C178.767 222.041 176.193 222.442 173 222 C170.532 218.931 169.29 215.452 167.957 211.77 C167.606 210.802 167.254 209.835 166.893 208.838 C166.536 207.84 166.18 206.841 165.812 205.812 C165.444 204.803 165.076 203.793 164.697 202.752 C162 195.271 162 195.271 162 193 C161.01 193.33 160.02 193.66 159 194 C151.477 194.892 145.948 194.465 139.84 189.781 C137.035 187.066 135.62 184.564 134 181 C133.64 180.224 133.281 179.448 132.91 178.648 C131.372 174.172 131.887 169.675 132 165 C131.279 165.015 130.558 165.029 129.814 165.044 C122.285 165.129 114.972 164.649 107.5 163.75 C106.373 163.617 105.246 163.483 104.084 163.345 C93.93 162.088 83.975 160.26 74 158 C73.329 157.855 72.658 157.71 71.967 157.56 C33.086 149.109 -8.297 130.277 -36 101 C-36 100.34 -36 99.68 -36 99 C-36.99 98.67 -37.98 98.34 -39 98 C-40.605 96.223 -40.605 96.223 -42.188 94.062 C-42.717 93.352 -43.247 92.642 -43.793 91.91 C-45 90 -45 90 -45 88 C-45.66 88 -46.32 88 -47 88 C-49.714 81.894 -50.855 76.693 -50 70 C-48.387 66.29 -46.092 63.609 -43 61 C-42.01 61 -41.02 61 -40 61 C-39.892 60.492 -39.783 59.984 -39.672 59.461 C-38.754 56.098 -37.494 52.878 -36.25 49.625 C-35.706 48.183 -35.164 46.74 -34.621 45.297 C-33.62 42.638 -32.611 39.982 -31.598 37.328 C-29.38 31.37 -27.769 25.856 -26.812 19.562 C-25.794 14.471 -24.751 12.046 -20.5 9 C-18.691 7.957 -16.855 6.958 -15 6 C-14.023 5.424 -13.046 4.848 -12.039 4.254 C-4.71 0 -4.71 0 0 0 Z " fill="#092145" transform="translate(149,185)"/>
<path d="M0 0 C6.031 5.008 11.45 9.872 15.341 16.723 C13.654 16.6 11.966 16.475 10.279 16.348 C9.683 16.304 9.683 16.304 6.666 16.079 C3.517 15.831 0.377 15.531 -2.764 15.212 C-46.199 10.893 -89.332 15.561 -130.659 29.723 C-123.883 11.665 -106.698 -3.076 -89.659 -11.277 C-59.618 -23.732 -25.676 -20.536 0 0 Z " fill="#E1E651" transform="translate(292.65869140625,106.276611328125)"/>
<path d="M0 0 C15.244 5.38 25.529 19.417 32.375 33.438 C40.748 53.205 42.188 74.723 34.236 94.942 C30.912 102.721 26.623 109.677 21 116 C20.715 116.337 20.715 116.337 19.273 118.043 C9.937 128.313 -5.401 135.915 -19.234 137.209 C-38.988 138.004 -55.98 133.331 -71 120 C-71.601 119.492 -72.201 118.984 -72.82 118.461 C-79.92 111.998 -85.151 102.71 -89 94 C-88.835 93.67 -88.835 93.67 -88 92 C-87.733 92.315 -87.733 92.315 -86.383 93.906 C-74.915 107.08 -60.906 117.701 -43.027 119.371 C-24.518 119.926 -9.873 113.108 3.648 100.445 C10.532 93.287 15.544 85.296 19 76 C19.16 75.573 19.16 75.573 19.969 73.414 C25.535 55.426 22.508 36.18 14.203 19.74 C11.675 14.959 8.797 10.703 5.25 6.602 C4 5 4 5 4 3 C2.68 2.34 1.36 1.68 0 1 C0 0.67 0 0.34 0 0 Z " fill="#68391A" transform="translate(259,358)"/>
<path d="M0 0 C4.654 0.279 8.071 0.941 11.548 4.209 C18.535 12.83 21.381 24.593 24.525 35.019 C25.315 37.632 26.126 40.238 26.939 42.844 C27.457 44.533 27.973 46.224 28.488 47.914 C28.608 48.296 28.608 48.296 29.211 50.229 C30.867 55.79 31.596 61.217 32 67 C30.764 67.122 29.528 67.245 28.254 67.371 C22.437 68.017 16.697 69.034 10.938 70.062 C9.881 70.249 8.825 70.435 7.736 70.627 C5.157 71.082 2.578 71.54 0 72 C-3.364 64.804 -5.975 57.476 -8.443 49.934 C-8.731 49.082 -9.02 48.229 -9.316 47.352 C-9.568 46.587 -9.821 45.822 -10.08 45.034 C-11.074 42.836 -12.202 41.583 -14 40 C-16.494 41.204 -18.681 42.454 -21 44 C-24.921 44.523 -27.485 44.843 -30.973 42.902 C-35.937 38.95 -38.564 34.741 -39.312 28.32 C-39.57 22.373 -39.132 18.604 -35 14 C-32 12 -32 12 -28.688 11.938 C-23.875 13.324 -21.599 15.787 -19 20 C-18.336 22.23 -18.336 22.23 -18 24 C-17.34 24 -16.68 24 -16 24 C-16.637 19.107 -17.193 15.116 -20.125 11.062 C-23.659 8.527 -26.865 7.332 -31 6 C-28.337 2.954 -26.304 2.472 -22.25 2.137 C-21.507 2.092 -20.765 2.046 -20 2 C-19.237 1.924 -18.474 1.848 -17.688 1.77 C-13.547 1.511 -10.841 1.644 -7.5 4.25 C-4.234 7.843 -4.234 7.843 -4 11 C-2.02 10.67 -0.04 10.34 2 10 C1.886 9.723 1.886 9.723 1.309 8.32 C1.021 7.596 0.734 6.871 0.438 6.125 C0.147 5.406 -0.143 4.686 -0.441 3.945 C-1 2 -1 2 0 0 Z " fill="#EF6D4C" transform="translate(326,329)"/>
<path d="M0 0 C4.68 0.435 9.195 1.407 13.75 2.562 C14.859 2.832 15.967 3.101 17.109 3.379 C20.484 5.271 21.196 6.841 22.315 10.478 C22.541 11.31 22.767 12.143 23 13 C23.145 13.493 23.145 13.493 23.876 15.989 C25.21 20.562 26.508 25.146 27.775 29.738 C30.054 37.682 33.114 44.72 37 52 C37.68 53.367 38.354 54.736 39.02 56.109 C42.373 62.936 45.844 69.677 49.562 76.312 C49.749 76.645 49.749 76.645 50.692 78.329 C53.496 83.261 56.57 87.961 59.883 92.57 C61.773 96.681 60.372 99.986 58.875 104.062 C58.266 105.382 57.638 106.694 57 108 C56.774 108.475 56.774 108.475 55.633 110.879 C51.181 119.729 45.653 126.723 39 134 C38.377 134.705 37.755 135.41 37.113 136.137 C32.679 140.89 27.573 144.792 22.438 148.75 C21.717 149.306 20.996 149.861 20.253 150.434 C8.931 159 8.931 159 4.375 159 C1.477 157.78 -0.583 155.992 -3 154 C-1.9 153.31 -0.801 152.621 0.332 151.91 C37.732 128.241 37.732 128.241 45 111 C44.591 106.617 43.463 103.575 41.191 99.832 C40.614 98.866 40.037 97.9 39.442 96.905 C38.822 95.884 38.201 94.864 37.562 93.812 C36.278 91.653 34.997 89.491 33.719 87.328 C33.086 86.258 32.453 85.187 31.801 84.084 C29.294 79.792 26.894 75.452 24.562 71.062 C24.381 70.728 24.381 70.728 23.461 69.032 C16.172 55.159 11.344 40.435 6.918 25.456 C6.047 22.511 5.164 19.571 4.279 16.631 C3.718 14.755 3.157 12.88 2.598 11.004 C2.335 10.127 2.073 9.25 1.803 8.347 C1.565 7.541 1.327 6.735 1.082 5.905 C0.872 5.196 0.663 4.488 0.446 3.759 C0 2 0 2 0 0 Z " fill="#08562F" transform="translate(330,170)"/>
<path d="M0 0 C-4.416 32.903 -16.734 62.753 -32 92 C-37.393 86.733 -42.315 80.468 -43.484 72.84 C-43.52 66.04 -43.52 66.04 -42 63 C-42.66 62.67 -43.32 62.34 -44 62 C-43.34 61.835 -43.34 61.835 -40 61 C-39.892 60.492 -39.783 59.984 -39.672 59.461 C-38.754 56.098 -37.494 52.878 -36.25 49.625 C-35.706 48.183 -35.164 46.74 -34.621 45.297 C-33.62 42.638 -32.611 39.982 -31.598 37.328 C-29.38 31.37 -27.769 25.856 -26.812 19.562 C-25.794 14.471 -24.751 12.046 -20.5 9 C-18.691 7.957 -16.855 6.958 -15 6 C-14.023 5.424 -13.046 4.848 -12.039 4.254 C-4.71 0 -4.71 0 0 0 Z " fill="#07582F" transform="translate(149,185)"/>
<path d="M0 0 C-0.62 3.371 -1.439 6.558 -2.523 9.809 C-8.687 28.542 -11.848 46.42 -14 66 C-40.372 46.905 -40.372 46.905 -43.812 33.938 C-42.501 29.197 -39.444 26.401 -36 23 C-35.321 22.299 -34.641 21.598 -33.941 20.875 C-26.896 14.038 -10.376 0 0 0 Z " fill="#F8F9F9" transform="translate(71,316)"/>
<path d="M0 0 C3.591 0.474 5.392 1.952 8.285 4.109 C19.897 12.189 33.688 15.082 47.676 12.898 C55.926 11.063 64.191 7.907 70.898 2.656 C72.723 1.359 72.723 1.359 75.41 1.609 C77.723 2.359 77.723 2.359 78.723 3.359 C79.007 6.171 79.001 7.859 77.613 10.352 C68.055 21.321 54.824 26.53 40.531 27.598 C25.092 27.938 11.421 22.892 0.035 12.297 C-2.358 9.734 -3.27 8.382 -4.402 4.984 C-4.238 1.538 -3.432 0.542 0 0 Z " fill="#07432E" transform="translate(209.27734375,265.640625)"/>
<path d="M0 0 C0.66 0.33 1.32 0.66 2 1 C2.625 3.062 2.625 3.062 3 5 C3.99 4.34 4.98 3.68 6 3 C6.103 3.763 6.206 4.526 6.312 5.312 C7 8 7 8 8.443 9.374 C10.374 11.391 10.847 13.033 11.605 15.711 C11.867 16.626 12.128 17.541 12.396 18.484 C12.658 19.438 12.919 20.392 13.188 21.375 C13.324 21.848 13.324 21.848 14.014 24.242 C15.245 28.637 16.158 32.406 16 37 C14.764 37.122 13.528 37.245 12.254 37.371 C6.437 38.017 0.697 39.034 -5.062 40.062 C-6.119 40.249 -7.175 40.435 -8.264 40.627 C-10.843 41.082 -13.422 41.54 -16 42 C-17.562 39.188 -17.562 39.188 -19 36 C-18.67 35.01 -18.34 34.02 -18 33 C-17.34 33 -16.68 33 -16 33 C-17.194 26.041 -19.036 19.476 -21.293 12.785 C-22 10 -22 10 -21 7 C-20.01 9.31 -19.02 11.62 -18 14 C-17.01 14 -16.02 14 -15 14 C-14.67 12.35 -14.34 10.7 -14 9 C-15.65 8.67 -17.3 8.34 -19 8 C-18 6 -18 6 -16.234 5.406 C-15.485 5.249 -14.736 5.092 -13.965 4.93 C-13.156 4.756 -12.347 4.582 -11.514 4.402 C-10.664 4.228 -9.813 4.054 -8.938 3.875 C-8.083 3.693 -7.229 3.511 -6.35 3.324 C-4.235 2.875 -2.118 2.437 0 2 C0 1.34 0 0.68 0 0 Z " fill="#F27654" transform="translate(342,359)"/>
<path d="M0 0 C5.753 3.046 9.096 6.503 11.312 12.625 C12.729 19.45 12.297 26.385 8.812 32.5 C6.359 35.93 4.087 37.692 0 39 C-4.06 39.507 -6.377 39.274 -10.125 37.625 C-15.759 32.481 -18.275 26.544 -18.625 18.938 C-18.35 13.005 -16.718 8.628 -13 4 C-8.742 0.205 -5.665 -0.809 0 0 Z " fill="#07412E" transform="translate(294,209)"/>
<path d="M0 0 C4.389 2.393 7.871 6.043 9.559 10.82 C10.911 17.5 11.384 24.546 7.812 30.562 C5.532 33.584 3.318 36.104 0 38 C-5.213 38.663 -8.597 37.838 -13 35 C-18.729 28.952 -19.459 23.323 -19.312 15.234 C-18.728 9.181 -16.72 5.6 -12.312 1.5 C-8.014 -0.446 -4.633 -1.056 0 0 Z " fill="#07402E" transform="translate(212,214)"/>
<path d="M0 0 C2 2 2 2 2.125 5.938 C0.723 15.614 -7.565 22.816 -14.125 29.5 C-14.71 30.1 -15.296 30.699 -15.899 31.317 C-19.955 35.328 -23.847 38.56 -29.688 39.375 C-32.522 38.915 -33.226 38.214 -35 36 C-36.463 30.037 -34.545 24.758 -31.684 19.555 C-24.055 7.98 -14.456 -0.964 0 0 Z " fill="#C27E55" transform="translate(224,367)"/>
<path d="M0 0 C2.956 2.752 5.326 5.299 7 9 C6.793 13.752 5.061 17.779 3 22 C2.549 22.95 2.098 23.9 1.633 24.879 C-2.819 33.729 -8.347 40.723 -15 48 C-15.623 48.705 -16.245 49.41 -16.887 50.137 C-21.321 54.89 -26.427 58.792 -31.562 62.75 C-31.923 63.028 -31.923 63.028 -33.747 64.434 C-45.069 73 -45.069 73 -49.625 73 C-52.523 71.78 -54.583 69.992 -57 68 C-56.45 67.655 -56.45 67.655 -53.668 65.91 C-31.496 51.878 -7.947 33.819 -1.258 7.027 C-0.778 4.689 -0.35 2.361 0 0 Z " fill="#082145" transform="translate(384,256)"/>
<path d="M0 0 C3.492 2.848 6.783 5.847 10 9 C10.753 9.708 11.506 10.415 12.281 11.145 C14 13 14 13 14 15 C8.701 14.721 5.379 12.533 1.016 9.809 C-24.145 -5.281 -51.275 -10.785 -80 -15 C-63.277 -31.723 -15.796 -10.851 0 0 Z " fill="#93C838" transform="translate(201,43)"/>
<path d="M0 0 C4.644 0.279 8.066 0.933 11.535 4.199 C18.143 12.323 25 28.39 25 39 C24.505 38.835 24.505 38.835 22 38 C21.312 35.938 21.312 35.938 21 34 C20.01 34.66 19.02 35.32 18 36 C17.34 34.02 16.68 32.04 16 30 C16 30.66 16 31.32 16 32 C9.987 33.959 4.304 35.416 -2 36 C-2.866 34.068 -3.717 32.129 -4.562 30.188 C-5.038 29.109 -5.514 28.03 -6.004 26.918 C-7 24 -7 24 -6 21 C-5.031 20.752 -4.061 20.505 -3.062 20.25 C-2.052 19.837 -1.041 19.425 0 19 C1.25 15.625 1.25 15.625 2 12 C2.625 10.646 3.272 9.301 4 8 C3.34 8 2.68 8 2 8 C0.932 6.035 -0.066 4.031 -1 2 C-0.67 1.34 -0.34 0.68 0 0 Z " fill="#F0754C" transform="translate(326,329)"/>
<path d="M0 0 C1.321 1.981 2.613 3.981 3.875 6 C7.097 10.548 7.097 10.548 10 12 C14.893 12.544 16.882 12.746 21 10 C21.66 9.34 22.32 8.68 23 8 C27.654 9.48 27.654 9.48 29.117 11.68 C29.367 12.404 29.617 13.129 29.875 13.875 C30.187 14.746 30.499 15.618 30.82 16.516 C31.21 17.665 31.599 18.815 32 20 C32.6 21.704 33.201 23.407 33.805 25.109 C35.556 30.066 37.284 35.031 39 40 C39.832 39.849 40.665 39.697 41.523 39.541 C44.614 38.98 47.706 38.421 50.798 37.864 C52.136 37.622 53.473 37.38 54.811 37.136 C56.734 36.786 58.658 36.44 60.582 36.094 C61.161 35.989 61.161 35.989 64.089 35.459 C67 35 67 35 70 35 C69.688 36.875 69.688 36.875 69 39 C64.345 42.104 59.09 42.848 53.688 44.125 C52.559 44.402 51.43 44.679 50.268 44.965 C49.173 45.227 48.077 45.488 46.949 45.758 C45.952 45.996 44.956 46.235 43.928 46.481 C40.767 47.041 38.193 47.442 35 47 C32.532 43.931 31.29 40.452 29.957 36.77 C29.606 35.802 29.254 34.835 28.893 33.838 C28.536 32.84 28.18 31.841 27.812 30.812 C27.628 30.308 27.628 30.308 26.697 27.752 C24 20.271 24 20.271 24 18 C23.01 18.33 22.02 18.66 21 19 C13.388 19.903 7.929 19.432 1.793 14.637 C-2.126 11.059 -2.126 11.059 -3 8 C-2.318 5.17 -1.266 2.616 0 0 Z " fill="#132548" transform="translate(287,360)"/>
<path d="M0 0 C0 0.66 0 1.32 0 2 C-0.58 2.125 -1.159 2.251 -1.757 2.38 C-4.405 2.963 -7.046 3.575 -9.688 4.188 C-10.144 4.286 -10.144 4.286 -12.451 4.783 C-17.922 6.076 -21.552 7.248 -25 12 C-25.688 14.897 -25.302 16.975 -25 20 C-24 21 -24 21 -20.375 21.125 C-17.738 21.097 -15.371 20.903 -12.75 20.5 C-7.496 19.8 -2.292 19.922 3 20 C3 20.66 3 21.32 3 22 C-9.458 25.967 -9.458 25.967 -15.125 27.062 C-19.834 28.202 -19.834 28.202 -22 31 C-22.438 34.5 -22.438 34.5 -22 38 C-19.934 40.031 -18.59 40.912 -15.71 41.341 C-14.893 41.325 -14.076 41.309 -13.234 41.293 C-12.345 41.283 -11.455 41.274 -10.539 41.264 C-9.619 41.239 -8.698 41.213 -7.75 41.188 C-6.814 41.174 -5.878 41.16 -4.914 41.146 C-2.609 41.111 -0.305 41.062 2 41 C-1.681 45.09 -4.636 46.746 -10.121 47.336 C-21.284 47.467 -21.284 47.467 -26 43 C-28.206 40.627 -28.972 39.512 -29.152 36.23 C-29.081 35.226 -29.011 34.222 -28.938 33.188 C-28.817 29.2 -28.775 26.607 -31 23.25 C-32.99 20.016 -33.734 17.868 -33.504 14.051 C-32.291 9.115 -29.151 5.69 -25.23 2.609 C-17.702 -1.608 -8.33 -0.323 0 0 Z " fill="#8BC234" transform="translate(508,265)"/>
<path d="M0 0 C2.8 2.938 3.389 4.926 3.312 8.938 C3.155 14.995 2.653 21.028 2.125 27.062 C2.047 27.991 1.969 28.92 1.888 29.877 C1.804 30.754 1.72 31.631 1.633 32.535 C1.559 33.323 1.486 34.111 1.411 34.922 C1 37 1 37 -1 40 C-4.5 40.375 -4.5 40.375 -8 40 C-10.139 36.791 -10.34 35.482 -10.633 31.738 C-10.717 30.701 -10.8 29.664 -10.887 28.596 C-10.965 27.512 -11.044 26.429 -11.125 25.312 C-11.211 24.248 -11.298 23.184 -11.387 22.088 C-12.75 4.575 -12.75 4.575 -10 1 C-6.621 -1.534 -3.947 -1.176 0 0 Z " fill="#94C842" transform="translate(471,151)"/>
<path d="M0 0 C3.5 0.5 3.5 0.5 6 2.062 C7.5 4.5 7.5 4.5 7.508 7.742 C6.166 12.745 3.73 14.782 -0.125 18.062 C-0.73 18.601 -1.334 19.139 -1.957 19.693 C-3.175 20.773 -4.403 21.842 -5.639 22.901 C-6.908 23.992 -8.164 25.099 -9.406 26.22 C-10.016 26.765 -10.626 27.31 -11.254 27.871 C-11.799 28.364 -12.343 28.857 -12.905 29.365 C-14.5 30.5 -14.5 30.5 -17.812 31 C-20.5 30.5 -20.5 30.5 -22.5 28.5 C-22.614 21.565 -19.093 17.855 -14.688 12.812 C-14.058 12.067 -13.428 11.321 -12.779 10.553 C-4.334 0.619 -4.334 0.619 0 0 Z " fill="#8FC43B" transform="translate(510.5,171.5)"/>
<path d="M0 0 C2.533 1.79 4.264 4.039 6.125 6.5 C6.637 7.141 7.149 7.783 7.677 8.443 C8.684 9.712 9.681 10.988 10.667 12.273 C11.776 13.71 12.933 15.11 14.102 16.5 C16.659 19.603 17.901 21.333 18.5 25.375 C18 28 18 28 16 30 C10.894 30.194 8.495 28.897 4.703 25.508 C3.204 24.062 1.72 22.6 0.25 21.125 C-0.504 20.392 -1.258 19.658 -2.035 18.902 C-4.038 16.949 -6.024 14.98 -8 13 C-8.565 12.5 -9.13 11.999 -9.712 11.484 C-11 10 -11 10 -11.375 6.5 C-11 3 -11 3 -10 1.062 C-6.751 -0.664 -3.53 -0.741 0 0 Z " fill="#91C63C" transform="translate(427,172)"/>
<path d="M0 0 C6.664 7.689 11.012 16.719 15 26 C15.66 25.67 16.32 25.34 17 25 C16.449 30.239 15.571 34.974 14 40 C10 37.333 6 34.667 2 32 C2.33 30.68 2.66 29.36 3 28 C4.32 28.33 5.64 28.66 7 29 C3.112 24.344 -0.822 20.075 -5.52 16.227 C-7 15 -7 15 -9 13 C-8.34 12.34 -7.68 11.68 -7 11 C-4.329 7.524 -1.773 4.029 0 0 Z " fill="#0D8037" transform="translate(208,29)"/>
<path d="M0 0 C1 1 1 1 1.188 3.438 C1 6 1 6 -1 8 C-3.848 8.179 -6.65 8.271 -9.5 8.312 C-16.168 8.524 -21.18 9.224 -26.957 12.844 C-29.339 14.192 -31.277 14.748 -34 15 C-36 13 -36 13 -36.625 10.312 C-35.644 5.112 -32.183 2.958 -28 0 C-19.972 -5.079 -8.038 -4.762 0 0 Z " fill="#09442E" transform="translate(220,188)"/>
<path d="M0 0 C0.825 0.639 1.65 1.279 2.5 1.938 C4.528 4.726 4.374 6.634 4 10 C3 11 3 11 0.562 11.375 C-3.056 10.994 -4.687 10.223 -7.812 8.5 C-14.287 5.064 -19.392 5.609 -26.438 6.625 C-27.025 6.687 -27.025 6.687 -30 7 C-32 5 -32 5 -32.5 2.125 C-32 -1 -32 -1 -29.375 -3.312 C-19.702 -8.149 -8.331 -6.769 0 0 Z " fill="#09412D" transform="translate(308,184)"/>
<path d="M0 0 C1.047 1.926 1.047 1.926 1.75 4.312 C1.992 5.092 2.235 5.872 2.484 6.676 C3 9 3 9 3 13 C-3.013 14.959 -8.696 16.416 -15 17 C-15.866 15.068 -16.717 13.129 -17.562 11.188 C-18.038 10.109 -18.514 9.03 -19.004 7.918 C-20 5 -20 5 -19 2 C-16.585 1.468 -14.169 0.949 -11.75 0.438 C-11.068 0.286 -10.386 0.135 -9.684 -0.021 C-2.77 -1.465 -2.77 -1.465 0 0 Z " fill="#092244" transform="translate(339,348)"/>
<path d="M0 0 C0.413 0.007 0.413 0.007 2.506 0.041 C4.525 0.076 6.544 0.13 8.562 0.188 C8.562 0.848 8.562 1.507 8.562 2.188 C7.983 2.313 7.403 2.438 6.806 2.567 C4.158 3.151 1.517 3.763 -1.125 4.375 C-1.581 4.473 -1.581 4.473 -3.889 4.971 C-9.411 6.276 -12.851 7.502 -16.438 12.188 C-17.75 15.5 -17.75 15.5 -18.438 18.188 C-18.767 18.188 -19.098 18.188 -19.438 18.188 C-19.767 16.538 -20.098 14.887 -20.438 13.188 C-21.428 12.858 -22.418 12.527 -23.438 12.188 C-22.075 7.728 -20.303 5.765 -16.438 3.188 C-10.765 0.236 -6.338 -0.199 0 0 Z " fill="#95CB36" transform="translate(499.4375,264.8125)"/>
<path d="M0 0 C2 3 2 3 3 5 C3.66 4.67 4.32 4.34 5 4 C4.449 9.239 3.571 13.974 2 19 C-2 16.333 -6 13.667 -10 11 C-9.67 9.68 -9.34 8.36 -9 7 C-8.34 7.165 -8.34 7.165 -5 8 C-4.917 7.237 -4.835 6.474 -4.75 5.688 C-3.854 2.476 -2.784 1.706 0 0 Z " fill="#158A45" transform="translate(220,50)"/>
<path d="M0 0 C-0.33 0.99 -0.66 1.98 -1 3 C-2.65 3 -4.3 3 -6 3 C-6 3.66 -6 4.32 -6 5 C-7.742 6.635 -9.598 8.078 -11.469 9.562 C-11.721 9.8 -11.721 9.8 -13 11 C-13 11.66 -13 12.32 -13 13 C-12.34 13.66 -11.68 14.32 -11 15 C-11.33 15.66 -11.66 16.32 -12 17 C-12.99 17 -13.98 17 -15 17 C-15.866 15.068 -16.717 13.129 -17.562 11.188 C-18.038 10.109 -18.514 9.03 -19.004 7.918 C-20 5 -20 5 -19 2 C-16.585 1.468 -14.169 0.949 -11.75 0.438 C-11.068 0.286 -10.386 0.135 -9.684 -0.021 C-6.182 -0.752 -3.397 -1.322 0 0 Z " fill="#13294E" transform="translate(339,348)"/>
<path d="M0 0 C2.908 3.531 5.719 7.029 8 11 C7.75 13.375 7.75 13.375 7 15 C5 14 5 14 4 12 C1.532 13.152 -0.048 14.048 -2 16 C-5.297 15.67 -6.623 15.377 -9 13 C-8.34 12.34 -7.68 11.68 -7 11 C-4.329 7.524 -1.773 4.029 0 0 Z " fill="#108C3E" transform="translate(208,29)"/>
<path d="M0 0 C0.66 0 1.32 0 2 0 C2.33 1.32 2.66 2.64 3 4 C4.32 4.33 5.64 4.66 7 5 C7 5.66 7 6.32 7 7 C11.698 10.007 14.308 11.379 20 11 C22.062 11.438 22.062 11.438 24 12 C25.665 12.341 27.332 12.676 29 13 C29 13.66 29 14.32 29 15 C36.26 15 43.52 15 51 15 C43.827 19.782 32.797 18.92 24.621 17.352 C16.367 15.027 5.379 11.094 0 4 C0 2.68 0 1.36 0 0 Z " fill="#144329" transform="translate(211,275)"/>
<path d="M0 0 C0.33 0.66 0.66 1.32 1 2 C1.66 2.33 2.32 2.66 3 3 C2.434 3.58 1.868 4.16 1.285 4.758 C-6 12.517 -6 12.517 -6 18 C-4.68 18.66 -3.36 19.32 -2 20 C-2.66 20.99 -3.32 21.98 -4 23 C-7 23.312 -7 23.312 -10 23 C-10.66 22.34 -11.32 21.68 -12 21 C-11.945 14.591 -9.39 11.226 -5.438 6.562 C-4.917 5.926 -4.397 5.29 -3.861 4.635 C-2.587 3.08 -1.295 1.538 0 0 Z " fill="#98CC48" transform="translate(500,179)"/>
<path d="M0 0 C0.99 0 1.98 0 3 0 C4.838 2.342 6.458 4.631 8.062 7.125 C8.509 7.79 8.956 8.455 9.416 9.141 C12.075 13.195 13.4 16.201 15 21 C10.71 19.68 6.42 18.36 2 17 C2 16.34 2 15.68 2 15 C2.66 15 3.32 15 4 15 C5.062 13.125 5.062 13.125 6 11 C5.67 10.34 5.34 9.68 5 9 C4.01 9 3.02 9 2 9 C2.33 7.35 2.66 5.7 3 4 C2.01 3.34 1.02 2.68 0 2 C0 1.34 0 0.68 0 0 Z " fill="#205A3C" transform="translate(319,110)"/>
<path d="M0 0 C2 3 2 3 3.5 6.625 C5 10 5 10 7 11 C7 11.66 7 12.32 7 13 C7.99 13.33 8.98 13.66 10 14 C6.7 14.33 3.4 14.66 0 15 C-2.568 11.148 -3.977 7.517 -5 3 C-4.67 2.34 -4.34 1.68 -4 1 C-1.938 0.375 -1.938 0.375 0 0 Z " fill="#172E4D" transform="translate(322,392)"/>
<path d="M0 0 C2.956 2.752 5.326 5.299 7 9 C6.768 12.795 5.896 15.714 4 19 C3.34 17.68 2.68 16.36 2 15 C0.02 15.99 -1.96 16.98 -4 18 C-3.898 17.644 -3.898 17.644 -3.379 15.84 C-1.894 10.56 -0.606 5.453 0 0 Z " fill="#07203F" transform="translate(384,256)"/>
<path d="M0 0 C4.508 5.008 5.126 8.333 5 15 C3.35 14.67 1.7 14.34 0 14 C-0.195 11.982 -0.391 9.964 -0.586 7.945 C-1 6 -1 6 -3 4 C-4.317 3.303 -5.649 2.63 -7 2 C-7 1.34 -7 0.68 -7 0 C-7.66 -0.66 -8.32 -1.32 -9 -2 C-5.063 -3.604 -3.293 -2.47 0 0 Z " fill="#0C382B" transform="translate(300,213)"/>
<path d="M0 0 C5.438 2.426 9.34 5.565 12 11 C11.75 13.375 11.75 13.375 11 15 C10.67 14.67 10.34 14.34 10 14 C9.34 14.66 8.68 15.32 8 16 C7.732 15.397 7.464 14.793 7.188 14.172 C4.56 8.814 2.453 6.004 -3.133 3.754 C-5 3 -5 3 -8 1 C-5.067 -0.467 -3.28 -0.364 0 0 Z " fill="#F4AB8C" transform="translate(303,333)"/>
<path d="M0 0 C0.33 1.32 0.66 2.64 1 4 C-0.98 4.66 -2.96 5.32 -5 6 C-5.33 8.64 -5.66 11.28 -6 14 C-7.98 14.33 -9.96 14.66 -12 15 C-12 15.66 -12 16.32 -12 17 C-11.34 17 -10.68 17 -10 17 C-10.33 18.32 -10.66 19.64 -11 21 C-12.32 21 -13.64 21 -15 21 C-15 21.66 -15 22.32 -15 23 C-15.66 23 -16.32 23 -17 23 C-15.075 16.583 -8.136 0 0 0 Z " fill="#154B34" transform="translate(245,21)"/>
<path d="M0 0 C-0.283 2.085 -0.577 4.168 -0.875 6.25 C-1.037 7.41 -1.2 8.57 -1.367 9.766 C-1.918 12.582 -2.558 14.552 -4 17 C-5 16 -5 16 -5.098 13.715 C-5.086 12.798 -5.074 11.882 -5.062 10.938 C-5.053 10.018 -5.044 9.099 -5.035 8.152 C-5.024 7.442 -5.012 6.732 -5 6 C-6.65 5.67 -8.3 5.34 -10 5 C-10.33 5.99 -10.66 6.98 -11 8 C-12.98 8 -14.96 8 -17 8 C-14.268 5.883 -11.503 4.025 -8.5 2.312 C-7.747 1.876 -6.994 1.439 -6.219 0.988 C-4 0 -4 0 0 0 Z " fill="#155C35" transform="translate(149,185)"/>
<path d="M0 0 C2.126 0.114 4.251 0.241 6.375 0.375 C6.967 0.41 6.967 0.41 9.961 0.586 C13 1 13 1 15 3 C17.706 3.319 17.706 3.319 21.102 3.414 C22.313 3.453 23.525 3.491 24.773 3.531 C26.044 3.562 27.315 3.593 28.625 3.625 C29.904 3.664 31.183 3.702 32.5 3.742 C35.667 3.837 38.833 3.922 42 4 C42 4.33 42 4.66 42 5 C36.859 5.025 31.718 5.043 26.576 5.055 C24.83 5.06 23.083 5.067 21.336 5.075 C18.817 5.088 16.297 5.093 13.777 5.098 C13.004 5.103 12.231 5.108 11.434 5.113 C6.851 5.114 2.522 4.757 -2 4 C-1.34 2.68 -0.68 1.36 0 0 Z " fill="#063E29" transform="translate(205,547)"/>
<path d="M0 0 C1.5 1.125 1.5 1.125 3 3 C3.312 6.062 3.312 6.062 3 9 C1 11 1 11 -2.062 11.125 C-7.544 10.235 -11.221 5.761 -15 2 C-14.01 1.67 -13.02 1.34 -12 1 C-11.423 1.681 -10.845 2.361 -10.25 3.062 C-8 5 -8 5 -6 5 C-3.481 3.741 -1.877 2.078 0 0 Z " fill="#99CD49" transform="translate(442,191)"/>
<path d="M0 0 C2.273 2.882 4.075 5.797 5.75 9.062 C6.199 9.92 6.647 10.777 7.109 11.66 C8 14 8 14 7 17 C6.34 16.01 5.68 15.02 5 14 C2.836 13.707 2.836 13.707 0.375 13.812 C-0.442 13.84 -1.26 13.867 -2.102 13.895 C-2.728 13.929 -3.355 13.964 -4 14 C-3.524 12.041 -3.044 10.083 -2.562 8.125 C-2.296 7.034 -2.029 5.944 -1.754 4.82 C-1 2 -1 2 0 0 Z " fill="#0E5938" transform="translate(391,267)"/>
<path d="M0 0 C3.297 0.33 4.623 0.623 7 3 C6.423 9.577 6.423 9.577 5 11 C2.562 11.188 2.562 11.188 0 11 C-2 9 -2 9 -2.25 5.5 C-2 2 -2 2 0 0 Z " fill="#EBEFEE" transform="translate(293,216)"/>
<path d="M0 0 C4.964 1.241 7.139 2.761 10 7 C11.607 10.215 11.057 13.436 11 17 C10.34 17 9.68 17 9 17 C7.852 15.391 7.852 15.391 6.625 13.25 C5.095 10.667 3.89 8.896 1.688 6.812 C0 5 0 5 -0.25 2.25 C-0.168 1.507 -0.085 0.765 0 0 Z " fill="#1B2748" transform="translate(299,336)"/>
<path d="M0 0 C0.194 1.645 0.38 3.291 0.562 4.938 C0.667 5.854 0.771 6.771 0.879 7.715 C0.919 8.469 0.959 9.223 1 10 C0.67 10.33 0.34 10.66 0 11 C-1.525 10.911 -3.047 10.755 -4.562 10.562 C-5.389 10.461 -6.215 10.359 -7.066 10.254 C-7.704 10.17 -8.343 10.086 -9 10 C-9.33 9.01 -9.66 8.02 -10 7 C-7.463 3.147 -4.866 0 0 0 Z " fill="#084A35" transform="translate(205,214)"/>
<path d="M0 0 C0.33 0.66 0.66 1.32 1 2 C0.608 2.031 0.608 2.031 -1.375 2.188 C-2.241 2.456 -3.108 2.724 -4 3 C-5.188 5.375 -5.188 5.375 -6 8 C-6.33 8.495 -6.33 8.495 -8 11 C-8.99 10.835 -8.99 10.835 -14 10 C-14.33 9.01 -14.66 8.02 -15 7 C-10.779 0.591 -7.494 -0.288 0 0 Z " fill="#0E4D34" transform="translate(294,209)"/>
<path d="M0 0 C2.5 0.25 2.5 0.25 4.5 2.25 C4.75 5.25 4.75 5.25 4.5 8.25 C2.5 10.25 2.5 10.25 0 10.562 C-0.412 10.511 -0.412 10.511 -2.5 10.25 C-4.649 7.026 -4.883 5.983 -4.5 2.25 C-2.5 0.25 -2.5 0.25 0 0 Z " fill="#F0F3F2" transform="translate(211.5,220.75)"/>
<path d="M0 0 C0.33 1.32 0.66 2.64 1 4 C1.66 4 2.32 4 3 4 C3.33 8.29 3.66 12.58 4 17 C2.35 17.66 0.7 18.32 -1 19 C-2.341 16.318 -2.169 14.182 -2.188 11.188 C-2.202 10.15 -2.216 9.112 -2.23 8.043 C-1.997 4.962 -1.301 2.782 0 0 Z " fill="#164C36" transform="translate(3,339)"/>
<path d="M0 0 C1.32 0 2.64 0 4 0 C7.072 4.608 9.501 8.321 9 14 C7.68 13.67 6.36 13.34 5 13 C4.67 13.66 4.34 14.32 4 15 C1.545 9.877 0.497 5.661 0 0 Z " fill="#0B2145" transform="translate(313,380)"/>
<path d="M0 0 C1.517 11.522 1.517 11.522 -1 17 C-4.099 13.092 -5.135 10.29 -5.062 5.312 C-5.053 4.504 -5.044 3.696 -5.035 2.863 C-5.024 2.248 -5.012 1.634 -5 1 C-3 0 -3 0 0 0 Z " fill="#0C1C3A" transform="translate(286,351)"/>
<path d="M0 0 C1.525 0.089 3.047 0.245 4.562 0.438 C4.976 0.488 4.976 0.488 7.066 0.746 C7.704 0.83 8.343 0.914 9 1 C8.635 3.702 8.301 5.584 6.688 7.812 C5 9 5 9 1 9 C-1 7 -1 7 -1.188 3.938 C-1 1 -1 1 0 0 Z " fill="#8BC332" transform="translate(418,173)"/>
<path d="M0 0 C1.98 0.66 3.96 1.32 6 2 C6 2.66 6 3.32 6 4 C7.65 3.67 9.3 3.34 11 3 C9.554 5.893 7.453 6.552 4.625 8.062 C3.648 8.59 2.671 9.117 1.664 9.66 C-1 11 -1 11 -4 12 C-3.523 10.374 -3.043 8.749 -2.562 7.125 C-2.296 6.22 -2.029 5.315 -1.754 4.383 C-1 2 -1 2 0 0 Z " fill="#245E3F" transform="translate(137,138)"/>
<path d="M0 0 C0.401 0.002 0.401 0.002 2.432 0.01 C2.848 0.014 2.848 0.014 4.957 0.035 C5.802 0.04 6.647 0.044 7.518 0.049 C9.602 0.061 11.686 0.079 13.77 0.098 C13.77 0.758 13.77 1.418 13.77 2.098 C1.284 5.726 1.284 5.726 -5.23 4.098 C-5.23 3.438 -5.23 2.778 -5.23 2.098 C-5.89 1.768 -6.55 1.438 -7.23 1.098 C-4.465 0.176 -2.848 -0.02 0 0 Z " fill="#8DBE34" transform="translate(494.23046875,264.90234375)"/>
<path d="M0 0 C2.5 2.312 2.5 2.312 5 5 C5 5.99 5 6.98 5 8 C3 9.688 3 9.688 1 11 C-2.519 9.593 -3.386 8.335 -5 5 C-5.99 4.67 -6.98 4.34 -8 4 C-8 3.67 -8 3.34 -8 3 C-6.334 2.957 -4.666 2.959 -3 3 C-2.67 3.33 -2.34 3.66 -2 4 C-1.34 2.68 -0.68 1.36 0 0 Z " fill="#041B3D" transform="translate(118,279)"/>
<path d="M0 0 C-0.309 0.495 -0.619 0.99 -0.938 1.5 C-2.416 4.98 -2.624 8.24 -3 12 C-3.33 12 -3.66 12 -4 12 C-4 10.02 -4 8.04 -4 6 C-4.99 6 -5.98 6 -7 6 C-7.33 6.66 -7.66 7.32 -8 8 C-8.33 7.01 -8.66 6.02 -9 5 C-12.96 5 -16.92 5 -21 5 C-21 4.67 -21 4.34 -21 4 C-17.7 3.67 -14.4 3.34 -11 3 C-11 2.34 -11 1.68 -11 1 C-7.266 0.121 -3.832 -0.089 0 0 Z " fill="#1D324E" transform="translate(290,345)"/>
</svg>
