<svg xmlns="http://www.w3.org/2000/svg" width="512" height="512" viewBox="0 0 512 512"><rect width="512" height="512" rx="112.64" ry="112.64" fill="#172338"/><g transform="translate(221.18011385199242 226.8927514231499) scale(0.5440607210626186)"><path d="M -80 -170 C -80 -192 -62 -210 -40 -210 L 8 -210 C 30 -210 48 -192 48 -170 L 48 -95 L 120 -95 C 142 -95 160 -77 160 -55 L 160 -18 C 160 4 142 22 120 22 L 48 22 L 48 132 C 48 187 69 211 118 211 L 136 211 C 159 211 178 230 178 253 L 178 275 C 178 298 159 317 136 317 L 100 317 C 6 317 -80 262 -80 142 L -80 22 L -136 22 C -158 22 -176 4 -176 -18 L -176 -55 C -176 -77 -158 -95 -136 -95 L -80 -95 Z" fill="#FFFFFF"/><circle cx="242" cy="-118" r="62" fill="#3CC54A"/></g></svg>