<svg xmlns="http://www.w3.org/2000/svg" viewBox="0 0 1200 1145"><g>
<defs>
<clipPath id="billc">
  <path d="M 245,140 C 360,178 480,192 600,192 C 720,192 840,178 955,140 C 972,260 970,400 948,530 C 830,570 720,585 600,585 C 480,585 370,570 252,530 C 230,400 228,260 245,140 Z"/>
</clipPath>
</defs>

<!-- sombra -->
<ellipse cx="600" cy="712" rx="300" ry="26" fill="#DDD8EE"/>

<!-- piernas -->
<path d="M 468,562 C 462,590 456,614 452,642" stroke="#232347" stroke-width="32" stroke-linecap="round" fill="none"/>
<path d="M 468,562 C 465,580 462,596 459,610" stroke="#232347" stroke-width="42" stroke-linecap="round" fill="none"/>
<path d="M 732,562 C 738,590 744,614 748,642" stroke="#232347" stroke-width="32" stroke-linecap="round" fill="none"/>
<path d="M 732,562 C 735,580 738,596 741,610" stroke="#232347" stroke-width="42" stroke-linecap="round" fill="none"/>

<!-- tenis -->
<g transform="translate(0,16) rotate(4 425 660)">
  <path d="M 336,666 C 326,636 348,614 384,618 C 400,598 438,596 458,612 L 490,620 C 510,627 520,642 520,660 L 520,670 C 520,680 510,686 498,686 L 356,686 C 342,686 338,678 336,666 Z" fill="#FFFFFF" stroke="#232347" stroke-width="14" stroke-linejoin="round"/>
  <path d="M 334,683 L 522,683" stroke="#232347" stroke-width="17" stroke-linecap="round"/>
  <path d="M 452,614 C 462,630 462,648 452,664" stroke="#232347" stroke-width="9" stroke-linecap="round" fill="none"/>
</g>
<g transform="translate(1200,16) scale(-1,1) rotate(4 425 660)">
  <path d="M 336,666 C 326,636 348,614 384,618 C 400,598 438,596 458,612 L 490,620 C 510,627 520,642 520,660 L 520,670 C 520,680 510,686 498,686 L 356,686 C 342,686 338,678 336,666 Z" fill="#FFFFFF" stroke="#232347" stroke-width="14" stroke-linejoin="round"/>
  <path d="M 334,683 L 522,683" stroke="#232347" stroke-width="17" stroke-linecap="round"/>
  <path d="M 452,614 C 462,630 462,648 452,664" stroke="#232347" stroke-width="9" stroke-linecap="round" fill="none"/>
</g>

<!-- brazos -->
<path d="M 258,332 C 208,318 174,290 154,250" stroke="#232347" stroke-width="34" stroke-linecap="round" fill="none"/>
<path d="M 258,332 C 234,325 214,315 197,302" stroke="#232347" stroke-width="46" stroke-linecap="round" fill="none"/>
<path d="M 942,332 C 990,320 1022,326 1050,350" stroke="#232347" stroke-width="34" stroke-linecap="round" fill="none"/>
<path d="M 942,332 C 964,326 984,325 1002,329" stroke="#232347" stroke-width="46" stroke-linecap="round" fill="none"/>

<!-- billete: curvado hacia atras (esquinas superiores altas) -->
<path d="M 245,140 C 360,178 480,192 600,192 C 720,192 840,178 955,140 C 972,260 970,400 948,530 C 830,570 720,585 600,585 C 480,585 370,570 252,530 C 230,400 228,260 245,140 Z" fill="#4E9B52" stroke="#232347" stroke-width="20" stroke-linejoin="round"/>

<g clip-path="url(#billc)">
  <!-- panel interno claro -->
  <path d="M 298,185 C 400,216 500,228 600,228 C 700,228 800,216 902,185 C 916,290 914,405 896,500 C 800,532 700,545 600,545 C 500,545 400,532 304,500 C 286,405 284,290 298,185 Z" fill="#74C476"/>
  <!-- sombra inferior interna -->
  <path d="M 252,500 C 400,555 800,555 948,500 L 948,600 L 252,600 Z" fill="#448A48" opacity="0.45"/>
  <!-- manchas -->
  <ellipse cx="360" cy="290" rx="55" ry="30" fill="#95D795" opacity="0.8"/>
  <ellipse cx="430" cy="495" rx="60" ry="26" fill="#95D795" opacity="0.7"/>
  <ellipse cx="835" cy="300" rx="55" ry="30" fill="#95D795" opacity="0.8"/>
  <ellipse cx="780" cy="500" rx="55" ry="24" fill="#95D795" opacity="0.7"/>
  <ellipse cx="600" cy="245" rx="70" ry="22" fill="#95D795" opacity="0.6"/>
  <!-- circulos esquina -->
  <circle cx="320" cy="248" r="19" fill="#3E9149"/>
  <circle cx="880" cy="248" r="19" fill="#3E9149"/>
  <circle cx="316" cy="492" r="19" fill="#3E9149"/>
  <circle cx="884" cy="492" r="19" fill="#3E9149"/>
  <!-- brillos superiores -->
  <path d="M 282,168 C 380,196 470,208 560,210" stroke="#FFFFFF" stroke-width="14" stroke-linecap="round" fill="none" opacity="0.9"/>
  <path d="M 648,208 C 740,205 830,194 918,168" stroke="#FFFFFF" stroke-width="11" stroke-linecap="round" fill="none" opacity="0.75"/>

  <!-- cejas -->
  <path d="M 390,242 C 420,218 476,214 506,230" stroke="#232347" stroke-width="22" stroke-linecap="round" fill="none"/>
  <path d="M 664,208 C 700,182 766,184 800,212" stroke="#232347" stroke-width="24" stroke-linecap="round" fill="none"/>

  <!-- ojos con profundidad -->
  <g transform="rotate(-5 455 332)">
    <ellipse cx="455" cy="332" rx="50" ry="64" fill="#FFFFFF" stroke="#232347" stroke-width="13"/>
  </g>
  <ellipse cx="469" cy="346" rx="26" ry="34" fill="#232347"/>
  <circle cx="458" cy="329" r="10" fill="#FFFFFF"/>
  <circle cx="478" cy="360" r="4.5" fill="#FFFFFF" opacity="0.85"/>
  <g transform="rotate(4 735 322)">
    <ellipse cx="735" cy="322" rx="59" ry="75" fill="#FFFFFF" stroke="#232347" stroke-width="14"/>
  </g>
  <ellipse cx="716" cy="338" rx="30" ry="40" fill="#232347"/>
  <circle cx="703" cy="318" r="11.5" fill="#FFFFFF"/>
  <circle cx="727" cy="355" r="5" fill="#FFFFFF" opacity="0.85"/>

  <!-- mejillas -->
  <path d="M 378,412 C 388,423 403,427 416,422" stroke="#3E9149" stroke-width="10" stroke-linecap="round" fill="none"/>
  <path d="M 822,400 C 812,411 797,415 784,410" stroke="#3E9149" stroke-width="10" stroke-linecap="round" fill="none"/>

  <!-- boca estilo original -->
  <path d="M 480,420 C 520,472 680,464 706,402 C 724,480 650,534 585,530 C 520,526 466,478 480,420 Z" fill="#232347"/>
  <path d="M 494,430 C 535,462 655,454 692,412 L 681,444 C 640,472 540,472 508,450 Z" fill="#FFFFFF"/>
  <path d="M 545,506 C 560,530 646,524 658,498 C 640,477 560,480 545,506 Z" fill="#C94F4F"/>
  <path d="M 472,414 C 464,410 458,402 456,394" stroke="#232347" stroke-width="12" stroke-linecap="round" fill="none"/>
  <path d="M 712,396 C 720,391 725,383 727,374" stroke="#232347" stroke-width="12" stroke-linecap="round" fill="none"/>
</g>

<!-- grieta blanca -->
<path d="M 600,168 L 578,250 L 622,335 L 570,425 L 615,505 L 590,606" stroke="#FFFFFF" stroke-width="32" stroke-linecap="round" stroke-linejoin="round" fill="none"/>

<!-- guante amor y paz -->
<g>
  <path d="M 122,190 C 112,172 104,146 102,122 C 101,106 108,95 120,94 C 132,93 140,102 141,118 C 142,140 138,168 134,188 Z" fill="#FFFFFF" stroke="#232347" stroke-width="11" stroke-linejoin="round"/>
  <path d="M 146,186 C 144,162 145,134 150,110 C 153,92 164,84 176,89 C 186,93 190,104 188,120 C 184,146 174,172 166,190 Z" fill="#FFFFFF" stroke="#232347" stroke-width="11" stroke-linejoin="round"/>
  <path d="M 122,182 C 100,182 88,198 90,220 C 91,236 98,248 110,256 C 106,268 116,278 129,276 C 135,287 149,289 157,280 C 167,289 183,285 187,272 C 199,264 203,248 201,230 C 199,206 186,190 166,184 C 152,180 136,181 122,182 Z" fill="#FFFFFF" stroke="#232347" stroke-width="13" stroke-linejoin="round"/>
  <path d="M 132,274 C 133,266 136,260 141,256" stroke="#232347" stroke-width="8" stroke-linecap="round" fill="none"/>
  <path d="M 160,278 C 160,270 162,263 166,258" stroke="#232347" stroke-width="8" stroke-linecap="round" fill="none"/>
  <path d="M 168,192 C 184,202 190,220 184,238" stroke="#232347" stroke-width="9" stroke-linecap="round" fill="none"/>
</g>

<!-- telefono agarrado por detras, dedos por delante -->
<g transform="rotate(-8 1096 295)">
  <rect x="1046" y="200" width="100" height="190" rx="22" fill="#2E2E44" stroke="#232347" stroke-width="12"/>
  <rect x="1060" y="216" width="72" height="146" rx="12" fill="#44445F"/>
  <path d="M 1124,232 L 1124,270" stroke="#5E5E80" stroke-width="8" stroke-linecap="round"/>
  <circle cx="1096" cy="376" r="7" fill="#6A6A8A"/>
  <rect x="1128" y="226" width="30" height="38" rx="15" fill="#FFFFFF" stroke="#232347" stroke-width="9"/>
  <rect x="1130" y="268" width="32" height="38" rx="15" fill="#FFFFFF" stroke="#232347" stroke-width="9"/>
  <rect x="1130" y="310" width="32" height="38" rx="15" fill="#FFFFFF" stroke="#232347" stroke-width="9"/>
  <rect x="1128" y="350" width="30" height="36" rx="15" fill="#FFFFFF" stroke="#232347" stroke-width="9"/>
  <g transform="rotate(24 1052 322)">
    <rect x="1022" y="298" width="34" height="62" rx="17" fill="#FFFFFF" stroke="#232347" stroke-width="10"/>
  </g>
</g>

<!-- destellos -->
<g stroke="#3DA35D" stroke-width="16" stroke-linecap="round">
  <path d="M 1078,140 L 1062,102"/>
  <path d="M 1112,128 L 1112,82"/>
  <path d="M 1146,140 L 1164,104"/>
</g>
</g><g transform="translate(105.0,990) scale(1.32)"><path d="M50.2 -24.8Q60.0 -24.8 64.0 -28.0Q68.0 -31.200000000000003 68.0 -35.2Q68.0 -39.2 64.8 -41.5Q61.6 -43.800000000000004 55.800000000000004 -45.800000000000004L47.400000000000006 -48.6Q35.800000000000004 -52.6 26.900000000000002 -57.1Q18.0 -61.6 13.0 -68.8Q8.0 -76.0 8.0 -87.60000000000001Q8.0 -104.60000000000001 21.1 -114.80000000000001Q34.2 -125.0 57.800000000000004 -125.0Q69.4 -125.0 78.4 -122.80000000000001Q87.4 -120.60000000000001 92.60000000000001 -116.10000000000001Q97.80000000000001 -111.60000000000001 97.80000000000001 -104.60000000000001Q97.80000000000001 -99.60000000000001 95.4 -95.80000000000001Q93.0 -92.0 89.60000000000001 -89.4Q85.2 -92.2 77.80000000000001 -94.30000000000001Q70.4 -96.4 61.6 -96.4Q52.6 -96.4 48.400000000000006 -93.9Q44.2 -91.4 44.2 -87.60000000000001Q44.2 -84.60000000000001 46.900000000000006 -82.70000000000002Q49.6 -80.80000000000001 54.6 -79.2L65.2 -75.8Q84.2 -69.8 94.2 -60.3Q104.2 -50.800000000000004 104.2 -34.800000000000004Q104.2 -17.8 90.7 -7.1000000000000005Q77.2 3.6 51.400000000000006 3.6Q39.2 3.6 29.400000000000002 1.0Q19.6 -1.6 13.8 -6.8Q8.0 -12.0 8.0 -19.400000000000002Q8.0 -25.200000000000003 11.4 -29.3Q14.8 -33.4 18.8 -35.6Q24.400000000000002 -31.200000000000003 32.5 -28.0Q40.6 -24.8 50.2 -24.8Z M170.20000000000002 3.0Q184.60000000000002 3.0 195.90000000000003 -3.0Q207.20000000000002 -9.0 213.8 -20.6Q220.40000000000003 -32.2 220.40000000000003 -49.2Q220.40000000000003 -67.0 213.60000000000002 -78.30000000000001Q206.8 -89.60000000000001 194.60000000000002 -94.9Q182.4 -100.2 166.20000000000002 -100.2Q154.4 -100.2 144.60000000000002 -97.7Q134.8 -95.2 128.60000000000002 -91.2Q124.60000000000001 -88.60000000000001 122.30000000000001 -85.0Q120.00000000000001 -81.4 120.00000000000001 -76.0V-11.0H153.8V-70.60000000000001Q156.0 -71.8 159.2 -72.7Q162.4 -73.60000000000001 166.20000000000002 -73.60000000000001Q172.60000000000002 -73.60000000000001 176.90000000000003 -71.0Q181.20000000000002 -68.4 183.40000000000003 -63.10000000000001Q185.60000000000002 -57.800000000000004 185.60000000000002 -49.2Q185.60000000000002 -36.800000000000004 180.3 -30.300000000000004Q175.0 -23.8 165.0 -23.8Q159.4 -23.8 155.0 -26.0Q150.60000000000002 -28.200000000000003 147.20000000000002 -30.8V-2.4000000000000004Q152.0 -0.2 157.5 1.4Q163.0 3.0 170.20000000000002 3.0ZM154.0 -19.200000000000003H120.00000000000001V21.400000000000002Q120.00000000000001 30.6 124.5 34.0Q129.0 37.4 138.8 37.4Q143.60000000000002 37.4 147.70000000000002 36.8Q151.8 36.2 154.0 35.6Z M238.00000000000003 -52.800000000000004H272.0V-0.2Q269.8 0.4 265.70000000000005 1.0Q261.6 1.6 256.8 1.6Q247.00000000000003 1.6 242.50000000000003 -1.8Q238.00000000000003 -5.2 238.00000000000003 -14.4ZM272.0 -35.0H238.00000000000003V-130.4Q240.20000000000002 -131.0 244.3 -131.60000000000002Q248.40000000000003 -132.20000000000002 253.20000000000002 -132.20000000000002Q263.20000000000005 -132.20000000000002 267.6 -128.9Q272.0 -125.60000000000001 272.0 -116.2Z M293.00000000000006 -124.2Q293.00000000000006 -131.8 298.20000000000005 -137.0Q303.40000000000003 -142.20000000000002 311.6 -142.20000000000002Q319.8 -142.20000000000002 325.0 -137.0Q330.20000000000005 -131.8 330.20000000000005 -124.2Q330.20000000000005 -116.80000000000001 325.0 -111.5Q319.8 -106.2 311.6 -106.2Q303.40000000000003 -106.2 298.20000000000005 -111.5Q293.00000000000006 -116.80000000000001 293.00000000000006 -124.2ZM294.6 -52.800000000000004H328.6V-0.2Q326.40000000000003 0.4 322.30000000000007 1.0Q318.20000000000005 1.6 313.40000000000003 1.6Q303.6 1.6 299.1 -1.8Q294.6 -5.2 294.6 -14.4ZM328.6 -35.0H294.6V-95.80000000000001Q296.8 -96.4 300.90000000000003 -97.0Q305.00000000000006 -97.60000000000001 309.8 -97.60000000000001Q319.8 -97.60000000000001 324.20000000000005 -94.30000000000001Q328.6 -91.0 328.6 -81.60000000000001Z M350.6 -52.800000000000004H384.20000000000005V-33.4Q384.20000000000005 -28.400000000000002 387.5 -26.1Q390.8 -23.8 396.8 -23.8Q399.8 -23.8 403.0 -24.3Q406.20000000000005 -24.8 408.6 -25.6Q410.40000000000003 -23.6 411.70000000000005 -20.8Q413.0 -18.0 413.0 -14.200000000000001Q413.0 -6.800000000000001 407.3 -1.9000000000000004Q401.6 3.0 387.20000000000005 3.0Q369.6 3.0 360.1 -5.0Q350.6 -13.0 350.6 -31.0ZM372.6 -69.0V-95.0H410.40000000000003Q411.6 -93.0 412.70000000000005 -89.6Q413.8 -86.2 413.8 -82.2Q413.8 -75.2 410.70000000000005 -72.1Q407.6 -69.0 402.40000000000003 -69.0ZM384.20000000000005 -48.0H350.6V-119.80000000000001Q352.8 -120.4 356.9 -121.10000000000001Q361.0 -121.80000000000001 365.6 -121.80000000000001Q375.40000000000003 -121.80000000000001 379.80000000000007 -118.4Q384.20000000000005 -115.0 384.20000000000005 -105.80000000000001Z" fill="#232347"/><g transform="translate(419.20000000000005,0)"><path d="M47.800000000000004 -65.0H57.400000000000006Q65.60000000000001 -65.0 70.7 -69.1Q75.8 -73.2 75.8 -80.80000000000001Q75.8 -88.4 71.1 -92.5Q66.4 -96.60000000000001 57.400000000000006 -96.60000000000001Q54.2 -96.60000000000001 52.1 -96.5Q50.0 -96.4 47.800000000000004 -96.0ZM59.6 -37.6H13.0V-109.80000000000001Q13.0 -114.0 15.4 -116.30000000000001Q17.8 -118.60000000000001 21.6 -120.0Q28.400000000000002 -122.4 37.800000000000004 -123.5Q47.2 -124.60000000000001 54.6 -124.60000000000001Q82.0 -124.60000000000001 96.7 -112.80000000000001Q111.4 -101.0 111.4 -80.80000000000001Q111.4 -67.8 105.0 -58.1Q98.60000000000001 -48.400000000000006 87.0 -43.0Q75.4 -37.6 59.6 -37.6ZM13.0 -52.800000000000004H48.0V-0.2Q45.800000000000004 0.4 41.2 1.0Q36.6 1.6 31.8 1.6Q21.400000000000002 1.6 17.200000000000003 -2.1000000000000005Q13.0 -5.800000000000001 13.0 -15.0Z M166.2 -21.6Q169.60000000000002 -21.6 173.70000000000002 -22.3Q177.8 -23.0 179.8 -24.200000000000003V-40.2L165.4 -39.0Q159.8 -38.6 156.20000000000002 -36.6Q152.60000000000002 -34.6 152.60000000000002 -30.6Q152.60000000000002 -26.6 155.70000000000002 -24.1Q158.8 -21.6 166.2 -21.6ZM164.60000000000002 -100.2Q186.4 -100.2 199.5 -91.30000000000001Q212.60000000000002 -82.4 212.60000000000002 -63.6V-18.8Q212.60000000000002 -13.600000000000001 209.70000000000002 -10.3Q206.8 -7.0 202.8 -4.6000000000000005Q196.4 -0.8 187.2 1.2000000000000002Q178.0 3.2 166.2 3.2Q145.2 3.2 132.5 -4.9Q119.8 -13.0 119.8 -29.400000000000002Q119.8 -43.2 128.1 -50.6Q136.4 -58.0 153.4 -59.800000000000004L179.60000000000002 -62.6V-64.0Q179.60000000000002 -69.8 174.5 -72.3Q169.4 -74.8 159.8 -74.8Q152.4 -74.8 145.10000000000002 -73.2Q137.8 -71.60000000000001 132.0 -69.2Q129.4 -71.0 127.60000000000001 -74.7Q125.80000000000001 -78.4 125.80000000000001 -82.4Q125.80000000000001 -92.0 136.0 -96.0Q141.8 -98.2 149.70000000000002 -99.2Q157.60000000000002 -100.2 164.60000000000002 -100.2Z M246.20000000000002 -24.8Q243.20000000000002 -31.6 239.8 -40.5Q236.40000000000003 -49.400000000000006 232.70000000000005 -61.900000000000006Q229.00000000000003 -74.4 224.60000000000002 -92.2Q227.40000000000003 -95.0 232.10000000000002 -97.1Q236.8 -99.2 242.40000000000003 -99.2Q249.40000000000003 -99.2 254.00000000000003 -96.30000000000001Q258.6 -93.4 260.8 -85.4Q264.8 -71.4 268.8 -57.7Q272.8 -44.0 276.6 -30.400000000000002H277.40000000000003Q280.6 -39.6 283.70000000000005 -50.6Q286.8 -61.6 289.5 -73.10000000000001Q292.20000000000005 -84.60000000000001 294.0 -95.4Q297.40000000000003 -97.2 301.0 -98.2Q304.6 -99.2 308.6 -99.2Q315.6 -99.2 320.8 -96.2Q326.0 -93.2 326.0 -85.80000000000001Q326.0 -79.4 324.4 -71.0Q322.8 -62.6 320.0 -53.2Q317.20000000000005 -43.800000000000004 313.6 -34.300000000000004Q310.0 -24.8 306.0 -16.1Q302.0 -7.4 298.0 -0.4Q286.8 19.0 277.20000000000005 28.400000000000002Q267.6 37.800000000000004 257.8 37.800000000000004Q249.8 37.800000000000004 244.40000000000003 32.800000000000004Q239.00000000000003 27.8 238.00000000000003 19.8Q242.20000000000002 16.2 246.5 12.0Q250.8 7.800000000000001 254.8 3.1000000000000005Q258.8 -1.6 262.0 -6.2Q258.6 -7.2 254.70000000000002 -10.9Q250.8 -14.600000000000001 246.20000000000002 -24.8Z" fill="#3DA35D"/></g></g><g transform="translate(184.82037359999998,1103) scale(1.2936)"><g transform="translate(0,0)"><path d="M24.354 -16.254Q24.354 -11.502 22.005 -9.126000000000001Q19.656 -6.75 15.984 -6.75Q15.282 -6.75 14.391 -6.8309999999999995Q13.5 -6.912 12.906 -7.02V-25.812Q13.716 -25.919999999999998 14.498999999999999 -25.973999999999997Q15.282 -26.028 16.038 -26.028Q18.576 -26.028 20.439 -24.921Q22.302 -23.814 23.328 -21.654Q24.354 -19.494 24.354 -16.254ZM34.074 -16.416Q34.074 -22.302 31.725 -26.109Q29.376 -29.916 25.191000000000003 -31.779000000000003Q21.006 -33.642 15.39 -33.642Q13.338 -33.642 10.745999999999999 -33.399Q8.154 -33.156 5.832 -32.4Q4.806 -32.022 4.1579999999999995 -31.401Q3.51 -30.78 3.51 -29.646V-4.428Q3.51 -1.6199999999999999 6.4799999999999995 -0.486Q8.64 0.324 11.367 0.594Q14.094 0.864 15.93 0.864Q21.384 0.864 25.461 -1.053Q29.538 -2.9699999999999998 31.805999999999997 -6.804Q34.074 -10.638 34.074 -16.416Z M38.556 -33.534Q38.556 -35.586 39.959999999999994 -36.989999999999995Q41.364 -38.394 43.577999999999996 -38.394Q45.792 -38.394 47.196 -36.989999999999995Q48.599999999999994 -35.586 48.599999999999994 -33.534Q48.599999999999994 -31.536 47.196 -30.105Q45.792 -28.674 43.577999999999996 -28.674Q41.364 -28.674 39.959999999999994 -30.105Q38.556 -31.536 38.556 -33.534ZM38.988 -14.256H48.168V-0.054Q47.574 0.108 46.467 0.27Q45.36 0.432 44.064 0.432Q41.418 0.432 40.203 -0.486Q38.988 -1.404 38.988 -3.888ZM48.168 -9.45H38.988V-25.866Q39.582 -26.028 40.689 -26.189999999999998Q41.796 -26.352 43.092 -26.352Q45.792 -26.352 46.980000000000004 -25.461Q48.168 -24.57 48.168 -22.032Z M74.844 -26.784Q76.734 -26.784 78.03 -25.974Q79.326 -25.164 79.326 -23.166Q79.326 -22.14 78.786 -20.034Q78.246 -17.928 77.382 -15.255Q76.518 -12.582 75.465 -9.801Q74.412 -7.02 73.386 -4.644Q72.36 -2.268 71.55 -0.8099999999999999Q70.848 -0.27 69.363 0.135Q67.878 0.54 66.042 0.54Q63.936 0.54 62.397000000000006 0.0Q60.858000000000004 -0.54 60.263999999999996 -1.728Q59.67 -2.862 58.833 -4.914Q57.996 -6.966 57.051 -9.585Q56.106 -12.204 55.188 -14.985Q54.27 -17.766 53.487 -20.357999999999997Q52.704 -22.95 52.272 -24.894Q53.028 -25.65 54.297 -26.217Q55.566 -26.784 57.078 -26.784Q58.968 -26.784 60.21 -26.000999999999998Q61.452 -25.218 61.992000000000004 -23.058L64.098 -14.796Q64.53 -13.23 64.908 -11.799Q65.286 -10.368 65.583 -9.234Q65.88 -8.1 66.042 -7.344H66.312Q67.338 -11.34 68.472 -16.227Q69.606 -21.114 70.524 -25.758Q72.468 -26.784 74.844 -26.784Z M83.214 -33.534Q83.214 -35.586 84.618 -36.989999999999995Q86.022 -38.394 88.236 -38.394Q90.45 -38.394 91.854 -36.989999999999995Q93.258 -35.586 93.258 -33.534Q93.258 -31.536 91.854 -30.105Q90.45 -28.674 88.236 -28.674Q86.022 -28.674 84.618 -30.105Q83.214 -31.536 83.214 -33.534ZM83.646 -14.256H92.826V-0.054Q92.232 0.108 91.125 0.27Q90.018 0.432 88.722 0.432Q86.076 0.432 84.86099999999999 -0.486Q83.646 -1.404 83.646 -3.888ZM92.826 -9.45H83.646V-25.866Q84.24 -26.028 85.347 -26.189999999999998Q86.454 -26.352 87.75 -26.352Q90.45 -26.352 91.638 -25.461Q92.826 -24.57 92.826 -22.032Z M115.452 -7.074V-22.733999999999998H124.57799999999999V-5.778Q124.57799999999999 -4.428 124.011 -3.456Q123.44399999999999 -2.484 122.202 -1.728Q120.636 -0.702 118.15199999999999 0.08100000000000002Q115.66799999999999 0.864 112.482 0.864Q107.78399999999999 0.864 104.43599999999999 -0.702Q101.088 -2.268 99.306 -5.372999999999999Q97.524 -8.478 97.524 -13.014Q97.524 -17.766 99.36 -20.871Q101.196 -23.976 104.35499999999999 -25.515Q107.514 -27.054 111.40199999999999 -27.054Q113.292 -27.054 114.696 -26.676Q116.1 -26.298 117.018 -25.812V-18.36Q116.316 -18.9 115.209 -19.386Q114.10199999999999 -19.872 112.698 -19.872Q110.862 -19.872 109.53899999999999 -19.116Q108.216 -18.36 107.514 -16.848Q106.812 -15.336 106.812 -13.014Q106.812 -9.612 108.297 -7.992Q109.782 -6.372 112.428 -6.372Q113.39999999999999 -6.372 114.21 -6.615Q115.02 -6.858 115.452 -7.074ZM124.57799999999999 -21.006H115.398V-35.208Q115.99199999999999 -35.37 117.09899999999999 -35.532Q118.20599999999999 -35.694 119.502 -35.694Q122.202 -35.694 123.38999999999999 -34.803Q124.57799999999999 -33.912 124.57799999999999 -31.374Z M134.73 -9.018 134.406 -15.065999999999999 146.88 -17.118Q146.772 -18.198 145.8 -19.278Q144.828 -20.358 142.776 -20.358Q140.61599999999999 -20.358 139.185 -18.954Q137.754 -17.55 137.646 -14.958L137.97 -10.422Q138.51 -7.938 140.427 -6.965999999999999Q142.344 -5.994 144.72 -5.994Q146.988 -5.994 149.04 -6.587999999999999Q151.09199999999998 -7.1819999999999995 152.334 -7.884Q153.198 -7.344 153.792 -6.372Q154.386 -5.4 154.386 -4.32Q154.386 -2.538 153.063 -1.377Q151.74 -0.216 149.418 0.324Q147.096 0.864 144.072 0.864Q139.86 0.864 136.485 -0.7290000000000001Q133.11 -2.322 131.139 -5.507999999999999Q129.168 -8.693999999999999 129.168 -13.5Q129.168 -17.064 130.329 -19.656Q131.49 -22.248 133.434 -23.868000000000002Q135.378 -25.488 137.781 -26.271Q140.184 -27.054 142.722 -27.054Q146.556 -27.054 149.418 -25.569Q152.28 -24.084 153.9 -21.519Q155.52 -18.954 155.52 -15.606Q155.52 -13.77 154.494 -12.798Q153.468 -11.826 151.632 -11.556Z M158.32799999999997 -4.374Q158.32799999999997 -6.588 159.759 -8.127Q161.19 -9.666 163.56599999999997 -9.666Q165.94199999999998 -9.666 167.373 -8.127Q168.80399999999997 -6.588 168.80399999999997 -4.374Q168.80399999999997 -2.16 167.373 -0.621Q165.94199999999998 0.918 163.56599999999997 0.918Q161.19 0.918 159.759 -0.621Q158.32799999999997 -2.16 158.32799999999997 -4.374Z M194.346 -6.696Q196.992 -6.696 198.072 -7.56Q199.152 -8.424 199.152 -9.504Q199.152 -10.584 198.288 -11.205Q197.424 -11.826 195.858 -12.366L193.59 -13.122Q190.458 -14.202 188.055 -15.417000000000002Q185.65200000000002 -16.632 184.30200000000002 -18.576Q182.952 -20.52 182.952 -23.652Q182.952 -28.242 186.489 -30.996000000000002Q190.026 -33.75 196.398 -33.75Q199.53 -33.75 201.95999999999998 -33.156Q204.39 -32.562 205.79399999999998 -31.346999999999998Q207.198 -30.131999999999998 207.198 -28.242Q207.198 -26.892 206.55 -25.866Q205.902 -24.84 204.984 -24.137999999999998Q203.796 -24.894 201.798 -25.461Q199.8 -26.028 197.424 -26.028Q194.994 -26.028 193.86 -25.353Q192.726 -24.678 192.726 -23.652Q192.726 -22.842 193.45499999999998 -22.329Q194.184 -21.816 195.534 -21.384L198.39600000000002 -20.466Q203.526 -18.846 206.226 -16.281Q208.926 -13.716 208.926 -9.395999999999999Q208.926 -4.806 205.281 -1.917Q201.636 0.972 194.67000000000002 0.972Q191.376 0.972 188.73000000000002 0.27Q186.084 -0.432 184.518 -1.8359999999999999Q182.952 -3.2399999999999998 182.952 -5.2379999999999995Q182.952 -6.804 183.87 -7.9110000000000005Q184.788 -9.018 185.868 -9.612Q187.38 -8.424 189.567 -7.56Q191.754 -6.696 194.346 -6.696Z M239.274 -11.07H230.094V-15.876Q230.094 -18.09 228.987 -18.981Q227.88 -19.872 226.26 -19.872Q224.64 -19.872 223.398 -19.278Q222.156 -18.684 221.238 -17.982V-25.38Q222.48 -26.028 224.20799999999997 -26.540999999999997Q225.93599999999998 -27.054 227.988 -27.054Q233.28 -27.054 236.277 -24.381Q239.274 -21.708 239.274 -16.416ZM213.462 -14.256H222.642V-0.054Q222.048 0.108 220.941 0.27Q219.834 0.432 218.53799999999998 0.432Q215.892 0.432 214.677 -0.486Q213.462 -1.404 213.462 -3.888ZM230.094 -14.256H239.274V-0.054Q238.68 0.108 237.57299999999998 0.27Q236.46599999999998 0.432 235.17 0.432Q232.524 0.432 231.309 -0.486Q230.094 -1.404 230.094 -3.888ZM222.642 -9.45H213.462V-35.208Q214.05599999999998 -35.37 215.16299999999998 -35.532Q216.26999999999998 -35.694 217.566 -35.694Q220.266 -35.694 221.454 -34.803Q222.642 -33.912 222.642 -31.374Z M256.176 -5.832Q257.094 -5.832 258.201 -6.021Q259.308 -6.21 259.848 -6.534V-10.854L255.96 -10.53Q254.448 -10.422 253.476 -9.882000000000001Q252.504 -9.342 252.504 -8.262Q252.504 -7.1819999999999995 253.341 -6.507Q254.178 -5.832 256.176 -5.832ZM255.744 -27.054Q261.63 -27.054 265.16700000000003 -24.651Q268.704 -22.248 268.704 -17.172V-5.076Q268.704 -3.672 267.921 -2.781Q267.138 -1.89 266.058 -1.242Q264.33 -0.216 261.846 0.324Q259.36199999999997 0.864 256.176 0.864Q250.506 0.864 247.077 -1.323Q243.648 -3.51 243.648 -7.938Q243.648 -11.664 245.889 -13.661999999999999Q248.13 -15.66 252.72 -16.146L259.794 -16.902V-17.28Q259.794 -18.846 258.41700000000003 -19.521Q257.04 -20.196 254.448 -20.196Q252.45 -20.196 250.47899999999998 -19.764000000000003Q248.50799999999998 -19.332 246.942 -18.684Q246.24 -19.169999999999998 245.75400000000002 -20.168999999999997Q245.268 -21.168 245.268 -22.248Q245.268 -24.84 248.022 -25.919999999999998Q249.588 -26.514 251.721 -26.784Q253.85399999999998 -27.054 255.744 -27.054Z M283.5 -18.522V-12.366H274.32V-19.926Q274.32 -21.492 275.15700000000004 -22.653Q275.994 -23.814 277.344 -24.678Q279.234 -25.812 281.772 -26.406Q284.31 -27.0 287.01 -27.0Q292.896 -27.0 292.896 -22.842Q292.896 -21.87 292.626 -21.033Q292.356 -20.196 291.978 -19.602Q291.438 -19.71 290.682 -19.764000000000003Q289.926 -19.818 289.008 -19.818Q287.658 -19.818 286.146 -19.494Q284.634 -19.169999999999998 283.5 -18.522ZM274.32 -14.256H283.5V-0.054Q282.906 0.108 281.799 0.27Q280.692 0.432 279.396 0.432Q276.75 0.432 275.53499999999997 -0.486Q274.32 -1.404 274.32 -3.888Z M299.916 -9.018 299.592 -15.065999999999999 312.06600000000003 -17.118Q311.958 -18.198 310.986 -19.278Q310.014 -20.358 307.962 -20.358Q305.802 -20.358 304.371 -18.954Q302.94 -17.55 302.832 -14.958L303.156 -10.422Q303.696 -7.938 305.61300000000006 -6.965999999999999Q307.53000000000003 -5.994 309.906 -5.994Q312.174 -5.994 314.226 -6.587999999999999Q316.278 -7.1819999999999995 317.52 -7.884Q318.384 -7.344 318.978 -6.372Q319.572 -5.4 319.572 -4.32Q319.572 -2.538 318.249 -1.377Q316.926 -0.216 314.604 0.324Q312.282 0.864 309.258 0.864Q305.046 0.864 301.671 -0.7290000000000001Q298.296 -2.322 296.325 -5.507999999999999Q294.354 -8.693999999999999 294.354 -13.5Q294.354 -17.064 295.515 -19.656Q296.676 -22.248 298.62 -23.868000000000002Q300.564 -25.488 302.967 -26.271Q305.37 -27.054 307.908 -27.054Q311.742 -27.054 314.60400000000004 -25.569Q317.466 -24.084 319.086 -21.519Q320.706 -18.954 320.706 -15.606Q320.706 -13.77 319.68 -12.798Q318.654 -11.826 316.818 -11.556Z M323.514 -4.374Q323.514 -6.588 324.94500000000005 -8.127Q326.37600000000003 -9.666 328.752 -9.666Q331.12800000000004 -9.666 332.559 -8.127Q333.99 -6.588 333.99 -4.374Q333.99 -2.16 332.559 -0.621Q331.12800000000004 0.918 328.752 0.918Q326.37600000000003 0.918 324.94500000000005 -0.621Q323.514 -2.16 323.514 -4.374Z M359.532 -6.696Q362.178 -6.696 363.25800000000004 -7.56Q364.338 -8.424 364.338 -9.504Q364.338 -10.584 363.47400000000005 -11.205Q362.61 -11.826 361.044 -12.366L358.776 -13.122Q355.644 -14.202 353.241 -15.417000000000002Q350.838 -16.632 349.48800000000006 -18.576Q348.13800000000003 -20.52 348.13800000000003 -23.652Q348.13800000000003 -28.242 351.675 -30.996000000000002Q355.212 -33.75 361.584 -33.75Q364.716 -33.75 367.146 -33.156Q369.576 -32.562 370.98 -31.346999999999998Q372.384 -30.131999999999998 372.384 -28.242Q372.384 -26.892 371.736 -25.866Q371.088 -24.84 370.17 -24.137999999999998Q368.982 -24.894 366.98400000000004 -25.461Q364.986 -26.028 362.61 -26.028Q360.18 -26.028 359.04600000000005 -25.353Q357.91200000000003 -24.678 357.91200000000003 -23.652Q357.91200000000003 -22.842 358.641 -22.329Q359.37 -21.816 360.72 -21.384L363.582 -20.466Q368.712 -18.846 371.41200000000003 -16.281Q374.112 -13.716 374.112 -9.395999999999999Q374.112 -4.806 370.467 -1.917Q366.822 0.972 359.856 0.972Q356.562 0.972 353.916 0.27Q351.27 -0.432 349.704 -1.8359999999999999Q348.13800000000003 -3.2399999999999998 348.13800000000003 -5.2379999999999995Q348.13800000000003 -6.804 349.05600000000004 -7.9110000000000005Q349.974 -9.018 351.05400000000003 -9.612Q352.56600000000003 -8.424 354.75300000000004 -7.56Q356.94 -6.696 359.532 -6.696Z M383.07599999999996 -9.018 382.75199999999995 -15.065999999999999 395.226 -17.118Q395.118 -18.198 394.14599999999996 -19.278Q393.174 -20.358 391.12199999999996 -20.358Q388.962 -20.358 387.53099999999995 -18.954Q386.09999999999997 -17.55 385.99199999999996 -14.958L386.316 -10.422Q386.856 -7.938 388.773 -6.965999999999999Q390.69 -5.994 393.066 -5.994Q395.33399999999995 -5.994 397.38599999999997 -6.587999999999999Q399.438 -7.1819999999999995 400.67999999999995 -7.884Q401.544 -7.344 402.138 -6.372Q402.73199999999997 -5.4 402.73199999999997 -4.32Q402.73199999999997 -2.538 401.409 -1.377Q400.08599999999996 -0.216 397.76399999999995 0.324Q395.44199999999995 0.864 392.41799999999995 0.864Q388.20599999999996 0.864 384.83099999999996 -0.7290000000000001Q381.45599999999996 -2.322 379.48499999999996 -5.507999999999999Q377.51399999999995 -8.693999999999999 377.51399999999995 -13.5Q377.51399999999995 -17.064 378.67499999999995 -19.656Q379.83599999999996 -22.248 381.78 -23.868000000000002Q383.724 -25.488 386.12699999999995 -26.271Q388.53 -27.054 391.068 -27.054Q394.902 -27.054 397.764 -25.569Q400.626 -24.084 402.246 -21.519Q403.866 -18.954 403.866 -15.606Q403.866 -13.77 402.84 -12.798Q401.81399999999996 -11.826 399.97799999999995 -11.556Z M408.402 -14.256H417.474V-9.018Q417.474 -7.668 418.365 -7.047000000000001Q419.256 -6.426 420.876 -6.426Q421.686 -6.426 422.54999999999995 -6.561Q423.414 -6.696 424.062 -6.912Q424.548 -6.372 424.899 -5.616Q425.25 -4.86 425.25 -3.834Q425.25 -1.836 423.711 -0.5130000000000001Q422.17199999999997 0.8099999999999999 418.284 0.8099999999999999Q413.532 0.8099999999999999 410.967 -1.3499999999999999Q408.402 -3.51 408.402 -8.37ZM414.342 -18.63V-25.65H424.548Q424.872 -25.11 425.169 -24.192Q425.466 -23.274 425.466 -22.194Q425.466 -20.304 424.629 -19.467Q423.792 -18.63 422.388 -18.63ZM417.474 -12.959999999999999H408.402V-32.346Q408.996 -32.508 410.10299999999995 -32.697Q411.21 -32.886 412.452 -32.886Q415.098 -32.886 416.286 -31.968000000000004Q417.474 -31.05 417.474 -28.566Z M429.57 -14.256H438.642V-9.018Q438.642 -7.668 439.533 -7.047000000000001Q440.424 -6.426 442.044 -6.426Q442.854 -6.426 443.71799999999996 -6.561Q444.582 -6.696 445.23 -6.912Q445.716 -6.372 446.067 -5.616Q446.418 -4.86 446.418 -3.834Q446.418 -1.836 444.879 -0.5130000000000001Q443.34 0.8099999999999999 439.452 0.8099999999999999Q434.7 0.8099999999999999 432.135 -1.3499999999999999Q429.57 -3.51 429.57 -8.37ZM435.51 -18.63V-25.65H445.716Q446.04 -25.11 446.337 -24.192Q446.634 -23.274 446.634 -22.194Q446.634 -20.304 445.797 -19.467Q444.96 -18.63 443.556 -18.63ZM438.642 -12.959999999999999H429.57V-32.346Q430.164 -32.508 431.27099999999996 -32.697Q432.378 -32.886 433.62 -32.886Q436.266 -32.886 437.454 -31.968000000000004Q438.642 -31.05 438.642 -28.566Z M451.16999999999996 -14.256H460.34999999999997V-0.054Q459.756 0.108 458.649 0.27Q457.542 0.432 456.246 0.432Q453.59999999999997 0.432 452.385 -0.486Q451.16999999999996 -1.404 451.16999999999996 -3.888ZM460.34999999999997 -9.45H451.16999999999996V-35.208Q451.764 -35.37 452.871 -35.532Q453.978 -35.694 455.274 -35.694Q457.974 -35.694 459.162 -34.803Q460.34999999999997 -33.912 460.34999999999997 -31.374Z M470.664 -9.018 470.34 -15.065999999999999 482.814 -17.118Q482.706 -18.198 481.73400000000004 -19.278Q480.762 -20.358 478.71 -20.358Q476.55 -20.358 475.119 -18.954Q473.688 -17.55 473.58 -14.958L473.904 -10.422Q474.444 -7.938 476.361 -6.965999999999999Q478.278 -5.994 480.654 -5.994Q482.922 -5.994 484.97400000000005 -6.587999999999999Q487.026 -7.1819999999999995 488.268 -7.884Q489.132 -7.344 489.726 -6.372Q490.32 -5.4 490.32 -4.32Q490.32 -2.538 488.99699999999996 -1.377Q487.674 -0.216 485.352 0.324Q483.03 0.864 480.006 0.864Q475.794 0.864 472.419 -0.7290000000000001Q469.044 -2.322 467.073 -5.507999999999999Q465.102 -8.693999999999999 465.102 -13.5Q465.102 -17.064 466.263 -19.656Q467.424 -22.248 469.368 -23.868000000000002Q471.312 -25.488 473.71500000000003 -26.271Q476.118 -27.054 478.656 -27.054Q482.49 -27.054 485.352 -25.569Q488.214 -24.084 489.834 -21.519Q491.454 -18.954 491.454 -15.606Q491.454 -13.77 490.428 -12.798Q489.402 -11.826 487.566 -11.556Z M494.262 -4.374Q494.262 -6.588 495.693 -8.127Q497.124 -9.666 499.5 -9.666Q501.87600000000003 -9.666 503.307 -8.127Q504.738 -6.588 504.738 -4.374Q504.738 -2.16 503.307 -0.621Q501.87600000000003 0.918 499.5 0.918Q497.124 0.918 495.693 -0.621Q494.262 -2.16 494.262 -4.374Z" fill="#6B7280"/></g><g transform="translate(516.726,0)"><path d="M3.51 -23.868H12.69V-0.324Q12.096 -0.162 10.962 0.0Q9.828 0.162 8.532 0.162Q6.21 0.162 4.859999999999999 -1.188Q3.51 -2.538 3.51 -4.86ZM12.69 -8.693999999999999H3.51V-27.701999999999998Q3.51 -30.024 4.859999999999999 -31.374Q6.21 -32.724 8.532 -32.724Q9.828 -32.724 10.962 -32.562Q12.096 -32.4 12.69 -32.238ZM8.532 -12.959999999999999V-20.304H24.84Q25.218 -19.71 25.515 -18.792Q25.812 -17.874 25.812 -16.74Q25.812 -14.741999999999999 24.948 -13.850999999999999Q24.084 -12.959999999999999 22.572 -12.959999999999999ZM8.532 0.162V-7.29H26.568Q26.945999999999998 -6.696 27.243 -5.724Q27.54 -4.752 27.54 -3.618Q27.54 -1.6199999999999999 26.676000000000002 -0.729Q25.812 0.162 24.3 0.162ZM8.532 -25.326V-32.724H26.352Q26.73 -32.13 27.027 -31.212000000000003Q27.323999999999998 -30.294 27.323999999999998 -29.16Q27.323999999999998 -27.162 26.46 -26.244Q25.596 -25.326 24.084 -25.326Z M43.632 -5.832Q44.55 -5.832 45.657 -6.021Q46.763999999999996 -6.21 47.304 -6.534V-10.854L43.416 -10.53Q41.903999999999996 -10.422 40.932 -9.882000000000001Q39.96 -9.342 39.96 -8.262Q39.96 -7.1819999999999995 40.797 -6.507Q41.634 -5.832 43.632 -5.832ZM43.2 -27.054Q49.086 -27.054 52.623 -24.651Q56.16 -22.248 56.16 -17.172V-5.076Q56.16 -3.672 55.376999999999995 -2.781Q54.593999999999994 -1.89 53.513999999999996 -1.242Q51.786 -0.216 49.302 0.324Q46.818 0.864 43.632 0.864Q37.961999999999996 0.864 34.533 -1.323Q31.104 -3.51 31.104 -7.938Q31.104 -11.664 33.345 -13.661999999999999Q35.586 -15.66 40.176 -16.146L47.25 -16.902V-17.28Q47.25 -18.846 45.873 -19.521Q44.495999999999995 -20.196 41.903999999999996 -20.196Q39.906 -20.196 37.935 -19.764000000000003Q35.964 -19.332 34.397999999999996 -18.684Q33.696 -19.169999999999998 33.209999999999994 -20.168999999999997Q32.724 -21.168 32.724 -22.248Q32.724 -24.84 35.478 -25.919999999999998Q37.044 -26.514 39.177 -26.784Q41.31 -27.054 43.2 -27.054Z M83.916 -7.83Q83.916 -3.726 80.81099999999999 -1.404Q77.70599999999999 0.918 71.76599999999999 0.918Q67.176 0.918 64.233 -0.40499999999999997Q61.29 -1.728 61.29 -4.536Q61.29 -5.832 61.83 -6.75Q62.37 -7.668 63.126 -8.208Q64.692 -7.344 66.71699999999998 -6.6690000000000005Q68.74199999999999 -5.994 71.38799999999999 -5.994Q74.844 -5.994 74.844 -7.776Q74.844 -8.532 74.196 -8.963999999999999Q73.548 -9.395999999999999 72.036 -9.666L70.416 -9.99Q65.77199999999999 -10.908 63.449999999999996 -12.905999999999999Q61.128 -14.904 61.128 -18.522Q61.128 -22.572 64.422 -24.84Q67.716 -27.108 73.008 -27.108Q75.654 -27.108 77.841 -26.595Q80.02799999999999 -26.082 81.324 -24.975Q82.62 -23.868 82.62 -22.14Q82.62 -20.951999999999998 82.161 -20.034Q81.702 -19.116 81.0 -18.522Q80.40599999999999 -18.9 79.137 -19.278Q77.868 -19.656 76.41 -19.926000000000002Q74.952 -20.196 73.818 -20.196Q72.036 -20.196 71.064 -19.791Q70.092 -19.386 70.092 -18.522Q70.092 -17.928 70.632 -17.55Q71.172 -17.172 72.684 -16.848L74.358 -16.47Q79.542 -15.282 81.729 -13.203Q83.916 -11.124 83.916 -7.83Z M91.638 -6.696Q90.828 -8.532 89.91 -10.934999999999999Q88.992 -13.338 87.993 -16.713Q86.994 -20.088 85.806 -24.894Q86.562 -25.65 87.83099999999999 -26.217Q89.1 -26.784 90.612 -26.784Q92.502 -26.784 93.744 -26.000999999999998Q94.986 -25.218 95.58 -23.058Q96.66 -19.278 97.74 -15.578999999999999Q98.82 -11.879999999999999 99.846 -8.208H100.062Q100.926 -10.692 101.763 -13.662Q102.6 -16.632 103.329 -19.737000000000002Q104.05799999999999 -22.842 104.544 -25.758Q105.462 -26.244 106.434 -26.514Q107.406 -26.784 108.48599999999999 -26.784Q110.376 -26.784 111.78 -25.974Q113.184 -25.164 113.184 -23.166Q113.184 -21.438 112.752 -19.17Q112.32 -16.902 111.564 -14.364Q110.80799999999999 -11.826 109.836 -9.261Q108.864 -6.696 107.78399999999999 -4.3469999999999995Q106.704 -1.998 105.624 -0.108Q102.6 5.13 100.008 7.667999999999999Q97.416 10.206 94.77 10.206Q92.61 10.206 91.152 8.856Q89.694 7.506 89.42399999999999 5.346Q90.55799999999999 4.374 91.719 3.2399999999999998Q92.88 2.106 93.96 0.837Q95.03999999999999 -0.432 95.904 -1.674Q94.986 -1.944 93.93299999999999 -2.943Q92.88 -3.942 91.638 -6.696Z M113.508 -4.374Q113.508 -6.588 114.939 -8.127Q116.36999999999999 -9.666 118.746 -9.666Q121.12199999999999 -9.666 122.553 -8.127Q123.984 -6.588 123.984 -4.374Q123.984 -2.16 122.553 -0.621Q121.12199999999999 0.918 118.746 0.918Q116.36999999999999 0.918 114.939 -0.621Q113.508 -2.16 113.508 -4.374Z" fill="#3DA35D"/></g></g></svg>